<svg xmlns="http://www.w3.org/2000/svg" data-name="Layer 1" width="883.02687" height="802" viewBox="0 0 883.02687 802" xmlns:xlink="http://www.w3.org/1999/xlink"><path d="M1041.51292,450a399.07921,399.07921,0,0,1-34.16,162.2q-1.095,2.475-2.22,4.92c-.37.82-.75,1.63-1.13,2.45-.38.81-.76,1.63-1.15,2.44-.5,1.05-1,2.09-1.51,3.13-.63,1.31-1.27,2.61-1.93,3.91q-.11993.27-.26995.54c-.55005,1.1-1.1,2.2-1.67005,3.3-.12.24-.24.48-.37.71-.65,1.28-1.32,2.56-2,3.83v.01q-1.08,2.025-2.17,4.04-2.7,4.98-5.55,9.87c-.57.97-1.13,1.94-1.71,2.9-.53.9-1.06,1.79-1.6,2.68-.37.62-.74,1.23-1.12,1.84q-.9,1.485-1.83,2.97c-.01.01-.01.01-.01.02-1.37,2.2-2.77,4.39-4.18,6.56h-.01c-.65,1.01-1.31,2.01-1.97,3.01v.01q-2.98508,4.5-6.09,8.91v.01a.031.031,0,0,0-.02.01v.01l-.02.02q-2.46,3.525-5.02,6.99v.01c-1.09,1.48-2.19,2.96-3.3,4.42q-1.365,1.8-2.76,3.59c-.19.26-.39.51-.6.77v.01c-.25.33-.5.65-.77.98v.01q-5.925,7.575-12.21,14.85h-.01c-.22.27-.45.53-.68.79-.22.26-.46.52-.69.79h-.01c-.35.41-.71.82-1.06995,1.23-.35.41-.72.82-1.09,1.23v.01a401.88007,401.88007,0,0,1-73.8,65.1q-5.43,3.735-11,7.27c-.92.59-1.84,1.17-2.77,1.75-.28.19-.56.36-.84.53-.49.31-.99.62-1.49.93-.49.3-.99.61-1.49.91-1.99,1.22-4,2.42-6.01,3.6-.5.3-1.01.59-1.52.89-.5.29-1.01.58-1.52.87a.09191.09191,0,0,1-.06.04l-.02.01-.02.02h-.01c-2.52,1.45-5.05,2.88-7.61,4.26q-6.87,3.75-13.88,7.23c-1.16.58-2.33,1.15-3.5,1.72-.97.47-1.95.94-2.92,1.4-.27.13-.53.26-.8.38-.81.38-1.62.76-2.43,1.13-.88.42-1.77.81995-2.65,1.22-.99.45-1.97.89-2.96,1.33-3.72,1.66-7.48,3.26-11.25,4.8a392.11263,392.11263,0,0,1-41.23,14.26c-.65.19-1.31006.38-1.97.56q-8.985,2.52-18.1,4.61-15.91506,3.66-32.12,6.01c-.02,0-.05005.01-.07.01-1.29.19-2.59.37-3.88.55-.11.02-.23.04-.35.05-.01.01-.02.01-.04,0,0,0,0,.01-.01,0-1.43.19-2.86.38-4.3.56-.1.02-.2.03-.3.04-1.34.16-2.69.31995-4.04.47-1.45.16-2.9.31-4.36.46-1.11.11-2.22.22-3.33.32a1.52862,1.52862,0,0,1-.3.03c-1.01.09-2.01995.18-3.03.26-.04,0-.09.01-.13.01-.88.08-1.76.14-2.64.21q-15.525,1.23-31.35,1.22-17.175,0-34-1.43c-.04,0-.08-.01-.12-.01q-3.585-.3-7.16-.66c-.63-.06005-1.25-.13-1.88-.19-.12-.01-.24-.02-.36-.04-.19-.02-.38-.04-.58-.06-.1-.01-.21-.02-.31-.04-.83-.09-1.66-.18-2.5-.28-.93-.11-1.87-.22-2.8-.34-.93-.11-1.87-.23-2.8-.36-.2-.02-.41-.04-.61-.08-.68006-.08-1.36005-.17-2.03-.27-.33-.04-.65-.09-.97-.14-.65-.09-1.29-.18-1.94-.28-.02,0-.05-.01-.07-.01a395.166,395.166,0,0,1-60.29-13.59h-.01c-1.07-.33-2.14-.67-3.21-1.01q-.48-.135-.96-.3-4.16994-1.33492-8.29-2.76-5.685-1.95006-11.29-4.08c-1.02-.39-2.03-.78-3.05-1.17-2.03-.8-4.05-1.6-6.06-2.42q-5.145-2.09994-10.22-4.33h-.01v-.01q-4.74-2.085-9.41-4.3a1.00565,1.00565,0,0,1-.26-.12c-.01,0-.01-.01-.02-.01-.69-.32-1.38-.65-2.07-.98l-.02-.01a396.89923,396.89923,0,0,1-49.49-28.26q-7.605-5.085-14.95-10.51-5.92493-4.365-11.68-8.95a401.64793,401.64793,0,0,1-52.84-50.49h-.01v-.01c-1.13-1.29-2.23-2.57-3.35-3.87v-.01c-.16-.18-.31-.36-.46-.54-.71-.83-1.4-1.65-2.09-2.49v-.01q-1.41-1.66508-2.76-3.34c-.2-.24-.39-.47-.58-.71h-.01v-.01c-.74-.9-1.47-1.81-2.19-2.72-.37-.45-.73-.91-1.09-1.37H325.703v-.01q-3.27008-4.125-6.41-8.33v-.01c-.58-.77-1.15-1.54-1.71-2.32h-.01q-4.02-5.43-7.83-10.99v-.01q-1.44-2.085-2.85-4.2-1.41-2.115-2.79-4.24h-.01q-1.42493-2.19-2.82-4.4c-.05-.08-.1-.15-.13995-.22q-1.38008-2.175-2.72-4.38c-.72-1.17-1.43-2.33-2.12-3.5-.48-.79-.95-1.57-1.41-2.37-.17005-.27-.32-.54-.47-.8-1.06-1.81005-2.1-3.62-3.14-5.44-1.21-2.14-2.41-4.3-3.58-6.46-.48-.89-.96-1.79-1.43-2.69-.17-.29-.32-.58-.47-.88-.56-1.06-1.12-2.12-1.67-3.19-.55-1.06-1.1-2.13-1.64-3.2s-1.08-2.14-1.61-3.22c-.4-.81-.8-1.63-1.19-2.44a2.1149,2.1149,0,0,1-.11-.21c-.18-.38-.37-.75-.54-1.13a.66263.66263,0,0,1-.09-.19c-.41-.84-.81-1.67-1.2-2.51-.52-1.08-1.02-2.17-1.52-3.26-.36-.76-.7-1.53-1.05-2.3q-.75-1.61994-1.47-3.27c-.51-1.13-1-2.27-1.49005-3.41-.12994-.29-.25-.57-.37-.86-.23-.52-.45-1.04-.67-1.56-.59-1.38-1.17-2.78-1.74-4.17q-.975-2.355-1.9-4.72-.885-2.205-1.72-4.42l-.21-.54v-.01a399.23079,399.23079,0,0,1-19.64-70.46v-.01a399.87889,399.87889,0,0,1-5.31994-41.48c-.06-.76-.11005-1.52-.16-2.28q-.99-14.115-.97-28.34,0-6.315.2-12.57a399.14385,399.14385,0,0,1,88.48-238.96q3.615-4.485,7.36-8.86C409.09294,103.55,518.433,49,640.513,49c142.73,0,268.05,74.57,339.1,186.88q5.55,8.73,10.62,17.78A399.06328,399.06328,0,0,1,1041.51292,450Z" transform="translate(-158.48656 -49)" fill="#f2f2f2"/><path d="M834.693,764.75q-2.16,5.97-4.31,11.94c-.27.76-.55,1.51-.82,2.27q-5.49,15.20994-10.99,30.43c-1.16.58-2.33,1.15-3.5,1.72-.97.47-1.95.94-2.92,1.4-.27.13-.53.26-.8.38-.81.38-1.62.76-2.43,1.13-.88.42-1.77.81995-2.65,1.22-.99.45-1.97.89-2.96,1.33a13.282,13.282,0,0,1-.87-4.19,24.67963,24.67963,0,0,1,.79-6.68c.87-3.6,2.25-7.13,3.16-10.74.05-.17.09-.35.12994-.52a39.35275,39.35275,0,0,0-2.66-25.69c-2.26-4.78-5.5-9.13-6.91-14.23a20.53832,20.53832,0,0,1,1.53-14.28,22.89647,22.89647,0,0,1,3.07-4.78c.29-.37.6-.72.92-1.07a20.24071,20.24071,0,0,1,11.14-6.25c8.21-1.46,16.79,2.91,21.38,9.77a19.59971,19.59971,0,0,1,3.33,9.27C838.823,753.19,836.743,759.08,834.693,764.75Z" transform="translate(-158.48656 -49)" fill="#e4e4e4"/><path d="M812.02293,805.37c-1.87994-3.47-5.03-6.51-5.62994-10.41-1.95-12.52-6.65-21.5-14.44-26.59-2.26-1.47-2.62-4.72-4.01-7.06-.62-1.05-1.25-2.1-1.9-3.13q-1.575-2.565-3.28-5.03a81.7041,81.7041,0,0,0-7.11-9.04c-1.06995-1.19-2.2-2.34-3.37-3.43l-.01-.01c-.73-.7-1.47-1.37-2.24-2.02q-.45-.39-.93-.78l-.02-.02a48.00837,48.00837,0,0,0-4.24-3.28c-3.39-2.29-7.22-3.88-11.15-2.61a24.35155,24.35155,0,0,0-4.44,2.04c-.72.41-1.43.84-2.14,1.27-.48.29-.96.58-1.44.88-.39.23-.78.46-1.17.68q-4.53,2.61-9.1,5.12c-.44.25-.88.49-1.33.73h-.01c-.31.18-.63.35-.95.52-.61.34-1.23.68-1.84,1.01q-2.74494,1.485-5.5,2.94c-.93994.5-1.88995.98-2.84,1.46-.44.22-.88.44-1.31.67h-.01c-.16.08-.31.16-.47.24-1.30005.67-2.58,1.36-3.82,2.11a31.36082,31.36082,0,0,0-9.19,8.43c-.48.66-.94,1.34-1.36005,2.04a29.05784,29.05784,0,0,0-1.5,2.8c-.31.65-.6,1.3-.86,1.96v.01a31.36754,31.36754,0,0,0-.98,19.8v.01c.12.45.25.89.4,1.33.24.74.51,1.48.81,2.2a24.21427,24.21427,0,0,0,1.12,2.35v.01a44.40908,44.40908,0,0,0,8.24,10.22l.1.1c.4.39.81.79,1.21,1.18.22.21.45.42.69.62,3.46,2.97,9.05,5.22,12.21,8.27,1.69,1.63,2.68006,3.48,2.29,5.79-1.04,6.13-.81,10.1.25,12.65,2.88,6.96,11.92,3.42,18.11,4.79.66-.18,1.32-.37,1.97-.56a392.11263,392.11263,0,0,0,41.23-14.26c3.77-1.54,7.53-3.14,11.25-4.8.99-.44,1.97-.88,2.96-1.33.88-.4,1.77-.8,2.65-1.22.81-.37,1.62-.75,2.43-1.13.27-.12.53-.25.8-.38.97-.46,1.95-.93,2.92-1.4C814.083,809.18,813.053,807.27,812.02293,805.37Z" transform="translate(-158.48656 -49)" fill="#e4e4e4"/><path d="M738.85868,708.28412c2.10145-6.348-.78881-10.53656-8.226-12.75855a2.05037,2.05037,0,0,0-3.32908.89322l-6.49355,19.24076c-6.79217-1.73749-11.77417-.54712-12.85608,6.17108,2.6806-6.84308.15912-11.13556-7.38281-12.96643a2.05039,2.05039,0,0,0-3.38031.766l-4.27055,17.32955a44.00022,44.00022,0,1,0,45.93829-18.67563Z" transform="translate(-158.48656 -49)" fill="#e4e4e4"/><path d="M734.72443,763.1201a3.75905,3.75905,0,0,1-5.084-1.53313.5364.5364,0,0,1,.94529-.50726,2.682,2.682,0,0,0,4.72648-2.5363.5364.5364,0,0,1,.94529-.50726A3.759,3.759,0,0,1,734.72443,763.1201Z" transform="translate(-158.48656 -49)" fill="#fff"/><ellipse cx="730.01496" cy="753.77661" rx="4.29121" ry="1.65047" transform="translate(-428.1383 385.76639) rotate(-28.21872)" fill="#fff"/><path d="M708.59858,756.59148a9.55067,9.55067,0,0,1,12.91758-6.93178,10.6153,10.6153,0,1,0-13.3892,6.78955l0,0Q708.36106,756.52588,708.59858,756.59148Z" transform="translate(-158.48656 -49)" fill="#fff"/><circle cx="553.28366" cy="700.08625" r="3.65156" fill="#3f3d56"/><path d="M733.87481,743.45064a9.55069,9.55069,0,0,1,12.91759-6.93178,10.6153,10.6153,0,1,0-13.3892,6.78955v0Q733.63729,743.385,733.87481,743.45064Z" transform="translate(-158.48656 -49)" fill="#fff"/><circle cx="579.9001" cy="686.7417" r="3.65156" fill="#3f3d56"/><rect x="742.20653" y="741.57728" width="17.80043" height="1.76316" transform="translate(-463.38582 709.5156) rotate(-45.53938)" fill="#fff"/><rect x="744.71048" y="746.24264" width="17.80051" height="1.76317" transform="translate(-440.67172 467.3633) rotate(-32.19276)" fill="#fff"/><rect x="700.02333" y="764.21346" width="17.80043" height="1.76316" transform="translate(-290.35174 98.82902) rotate(-10.89806)" fill="#fff"/><rect x="702.52652" y="768.87923" width="17.80051" height="1.76317" transform="translate(-411.82891 311.02882) rotate(-24.24467)" fill="#fff"/><path d="M204.43948,494.0888c-34.19041-30.77118-54.893-79.70453-42.17021-123.90786a211.93232,211.93232,0,0,0,119.34561,83.238c18.66773,4.86579,39.93738,8.334,51.29453,23.92813,7.06689,9.70294,8.70791,22.525,7.03527,34.41114-1.673,11.88665-6.34878,23.112-10.98193,34.18566l.24524,2.98652C284.05653,540.14444,238.62991,524.86,204.43948,494.0888Z" transform="translate(-158.48656 -49)" fill="#e6e6e6"/><path d="M163.22432,370.32046c8.68977,36.657,29.14669,70.77536,57.85121,95.26077,6.20584,5.29371,12.96188,10.12363,20.54036,13.24628a44.74072,44.74072,0,0,0,23.38617,2.74588c7.389-.96088,14.83575-2.79941,22.32962-1.94739,7.89889.898,14.498,5.32413,19.10806,11.69721,5.64053,7.79764,8.14285,17.157,10.27185,26.39471,2.36383,10.25672,4.65662,20.94763,11.42828,29.33026.82047,1.01569-.80346,2.22937-1.62271,1.21527-11.78152-14.58428-10.16986-34.77246-18.70254-50.88839-3.98151-7.52-10.25339-13.88565-18.89173-15.46527-7.55386-1.38129-15.23468.508-22.70776,1.54562-7.84683,1.08945-15.43861.826-22.96667-1.83292-7.70078-2.71988-14.6599-7.29586-20.97387-12.40768a175.74319,175.74319,0,0,1-36.45945-41.08212,184.35726,184.35726,0,0,1-24.60536-57.58188c-.30018-1.26627,1.71632-1.48831,2.01452-.23032Z" transform="translate(-158.48656 -49)" fill="#fff"/><path d="M211.32535,458.11456a27.17751,27.17751,0,0,1-35.18551.67935c-1.00737-.82864.233-2.433,1.24169-1.60321a25.16578,25.16578,0,0,0,32.72856-.69882c.97359-.86829,2.18327.7594,1.21526,1.62271Z" transform="translate(-158.48656 -49)" fill="#fff"/><path d="M261.31975,482.554a52.38244,52.38244,0,0,0-11.36034-36.44531c-.81687-1.01855.80684-2.23257,1.62271-1.21524a54.4857,54.4857,0,0,1,11.74437,37.94867C263.23024,484.14569,261.224,483.85049,261.31975,482.554Z" transform="translate(-158.48656 -49)" fill="#fff"/><path d="M177.041,410.03836a15.38381,15.38381,0,0,0,7.73374-12.38037c.07966-1.30411,2.0859-1.00751,2.00674.28811a17.23883,17.23883,0,0,1-8.52522,13.715,1.04773,1.04773,0,0,1-1.419-.20374,1.01878,1.01878,0,0,1,.20374-1.419Z" transform="translate(-158.48656 -49)" fill="#fff"/><path d="M305.05583,307.99331c-.02658.81574-.05319,1.63144-.06619,2.45764a202.59521,202.59521,0,0,0,1.767,32.81647c.1008.84244.21567,1.6947.34049,2.5325a213.58124,213.58124,0,0,0,25.53955,74.37122A207.41618,207.41618,0,0,0,350.24574,446.307c9.01056,11.397,19.68707,23.03717,24.27145,36.35318a35.58147,35.58147,0,0,1,1.22074,4.23139L332.83244,548.3995c-.16766.09082-.32184.19214-.49.28363l-1.6008,2.53418c-.36618-.4021-.73737-.82709-1.10355-1.22918-.21337-.23237-.41723-.47846-.63061-.71088-.13925-.15924-.27808-.31928-.41284-.455-.04654-.05285-.09259-.10638-.12519-.14947-.13473-.13575-.24548-.27619-.36618-.4021q-3.12189-3.55436-6.20468-7.165c-.014-.00983-.014-.00983-.01852-.03333-15.61276-18.38092-29.82819-38.22668-40.57944-59.59921-.32324-.64313-.661-1.29538-.96469-1.96661a197.92186,197.92186,0,0,1-11.9455-30.0083,174.97958,174.97958,0,0,1-4.26547-17.18241,145.4993,145.4993,0,0,1-1.53814-45.46625c3.741-30.18548,17.09423-58.83856,40.655-77.45178C303.8448,308.922,304.4387,308.45932,305.05583,307.99331Z" transform="translate(-158.48656 -49)" fill="#e6e6e6"/><path d="M305.74006,308.67617c-15.13177,34.50046-19.33963,74.05848-11.16262,110.89084,1.76785,7.96308,4.25421,15.88712,8.42517,22.94312a44.74032,44.74032,0,0,0,17.01931,16.27252c6.47818,3.68146,13.531,6.697,19.00141,11.88907,5.76614,5.47272,8.37036,12.97983,8.2142,20.84393-.19107,9.622-3.82809,18.60147-7.68994,27.259-4.28784,9.61261-8.89389,19.52918-8.534,30.2992.04361,1.30493-1.98376,1.29632-2.02731-.00665-.62613-18.738,12.81537-33.88685,15.70538-51.89176,1.34854-8.40143.17337-17.26016-5.77282-23.72226-5.19968-5.65082-12.46994-8.76669-19.06144-12.43756-6.9212-3.85446-12.82415-8.63562-17.23407-15.291-4.51107-6.80808-7.3125-14.65162-9.27618-22.53455a175.74282,175.74282,0,0,1-4.37656-54.75287,184.35668,184.35668,0,0,1,15.02225-60.79c.52271-1.19177,2.26645-.155,1.74716,1.029Z" transform="translate(-158.48656 -49)" fill="#fff"/><path d="M291.28788,407.735a27.17752,27.17752,0,0,1-28.50265-20.64169c-.30542-1.26813,1.65082-1.80231,1.95666-.5325a25.16579,25.16579,0,0,0,26.55268,19.14688C292.59468,405.60058,292.58058,407.62851,291.28788,407.735Z" transform="translate(-158.48656 -49)" fill="#fff"/><path d="M316.49135,457.3486a52.38246,52.38246,0,0,0,12.872-35.93924c-.039-1.305,1.98838-1.29681,2.02732.00668a54.4858,54.4858,0,0,1-13.47049,37.37082c-.86167.98285-2.2858-.46072-1.4288-1.43823Z" transform="translate(-158.48656 -49)" fill="#fff"/><path d="M292.859,348.7073a15.38376,15.38376,0,0,0,13.62878-5.22879c.84876-.99328,2.27207.45142,1.42881,1.43826a17.23881,17.23881,0,0,1-15.06427,5.81788,1.04773,1.04773,0,0,1-1.01032-1.017,1.01877,1.01877,0,0,1,1.017-1.01032Z" transform="translate(-158.48656 -49)" fill="#fff"/><path d="M697.00723,312.09545c5.96036-32.965-3.9451-70.37081-30.98486-90.14557a154.345,154.345,0,0,1-31.58625,101.15129C625.85871,334.22845,615.16,345.71155,615.5764,359.755c.25892,8.73815,5.03286,16.85206,11.29711,22.94928,6.26473,6.09736,13.96325,10.47465,21.56963,14.78373l1.19075,1.82882C671.71036,374.12067,691.04688,345.06046,697.00723,312.09545Z" transform="translate(-158.48656 -49)" fill="#e6e6e6"/><path d="M665.5347,222.45618a131.92337,131.92337,0,0,1,9.18012,80.64641A56.811,56.811,0,0,1,668.797,319.89a32.58373,32.58373,0,0,1-12.23944,12.01126c-4.68257,2.74229-9.78994,5.00512-13.72436,8.83794a19.951,19.951,0,0,0-5.78407,15.25672c.23036,7.005,2.964,13.50955,5.85834,19.77751,3.21362,6.95935,6.66183,14.13706,6.50187,21.98336-.01938.95072,1.45692.92518,1.47624-.02408.27831-13.65123-9.65362-24.55535-11.92888-37.6394-1.06168-6.10524-.28991-12.56746,3.97894-17.3296,3.73294-4.16432,8.99763-6.50223,13.76284-9.2379a34.769,34.769,0,0,0,12.40511-11.29852,52.51972,52.51972,0,0,0,6.54138-16.49791,127.98928,127.98928,0,0,0,2.66794-39.91329,134.26293,134.26293,0,0,0-11.51573-44.12574c-.39194-.86291-1.65192-.09139-1.26255.76589Z" transform="translate(-158.48656 -49)" fill="#fff"/><path d="M676.99813,294.45515a19.79271,19.79271,0,0,0,20.56031-15.30178c.21039-.92638-1.21923-1.29682-1.42993-.36923A18.32763,18.32763,0,0,1,676.974,292.97889c-.94779-.06565-.91827,1.411.02409,1.47625Z" transform="translate(-158.48656 -49)" fill="#fff"/><path d="M659.115,330.82344a38.1487,38.1487,0,0,1-9.71432-26.0494c.016-.95073-1.46026-.92549-1.47625.02407a39.68049,39.68049,0,0,0,10.16373,27.0862c.63682.70753,1.66014-.35715,1.02683-1.06088Z" transform="translate(-158.48656 -49)" fill="#fff"/><path d="M675.29441,251.48525a11.20373,11.20373,0,0,1-9.97422-3.67847c-.62751-.71527-1.65028.35027-1.02683,1.06088a12.55449,12.55449,0,0,0,11.02519,4.09381.763.763,0,0,0,.72611-.75017.742.742,0,0,0-.75014-.72611Z" transform="translate(-158.48656 -49)" fill="#fff"/><path d="M556.07988,249.83016c.3791.45778.75826.91553,1.13424,1.3854a147.54494,147.54494,0,0,1,13.619,19.6815c.31768.53.63166,1.07189.93348,1.60989A155.54592,155.54592,0,0,1,590.2327,326.7155a151.05877,151.05877,0,0,1,1.51868,22.90091c-.10458,10.58032-1.05973,22.0437,2.23989,31.7548a25.91357,25.91357,0,0,0,1.18443,2.98055l52.13481,16.27588c.137-.02249.271-.03288.40857-.05525l2.05188.745c.03148-.39486.05563-.805.08711-1.19988.01919-.22894.02682-.46158.046-.69052.00911-.1538.01767-.30783.03473-.4461.00323-.05118.00588-.10253.00541-.14189.017-.13823.01814-.26847.03148-.39486q.21205-3.43875.37656-6.89245c.0037-.0119.0037-.0119-.00418-.02745.79075-17.54577.12365-35.31173-3.21875-52.41165-.10075-.51443-.19715-1.04062-.32172-1.56249a144.13719,144.13719,0,0,0-6.50649-22.60445,127.44031,127.44031,0,0,0-5.20766-11.79486,105.96353,105.96353,0,0,0-19.39263-26.86227c-15.61672-15.71017-36.08395-26.251-57.95018-26.459C557.19129,249.82472,556.643,249.8232,556.07988,249.83016Z" transform="translate(-158.48656 -49)" fill="#e6e6e6"/><path d="M555.99053,250.52845A131.92365,131.92365,0,0,1,611.87508,309.393a56.81117,56.81117,0,0,1,5.38216,16.96669,32.58347,32.58347,0,0,1-2.541,16.95935c-2.08775,5.00884-4.80331,9.89053-5.6371,15.31963a19.95094,19.95094,0,0,0,4.56735,15.664c4.40144,5.45447,10.50027,9.00208,16.585,12.26408,6.75589,3.62187,13.8306,7.27678,18.42688,13.63793.55693.77071,1.72028-.13848,1.1642-.908-7.99676-11.06729-22.49188-13.79393-32.18607-22.87092-4.52347-4.23549-7.79794-9.85986-7.25664-16.23233.47331-5.57243,3.26931-10.60888,5.427-15.66214a34.76907,34.76907,0,0,0,3.10231-16.49,52.52,52.52,0,0,0-4.71-17.111,127.98932,127.98932,0,0,0-21.90034-33.47483,134.2628,134.2628,0,0,0-35.76142-28.29862c-.83248-.453-1.374.9216-.547,1.37165Z" transform="translate(-158.48656 -49)" fill="#fff"/><path d="M608.49177,301.11383a19.79271,19.79271,0,0,0,7.20355-24.59636c-.38975-.8663-1.7543-.30135-1.364.5661a18.32761,18.32761,0,0,1-6.74758,22.86606c-.79627.51817.11633,1.67941.908,1.16419Z" transform="translate(-158.48656 -49)" fill="#fff"/><path d="M616.10929,340.91876a38.14884,38.14884,0,0,1-23.43986-14.95031c-.55964-.76873-1.72316.14022-1.16422.908a39.68075,39.68075,0,0,0,24.42293,15.50759c.93443.18155,1.11052-1.28473.18117-1.46527Z" transform="translate(-158.48656 -49)" fill="#fff"/><path d="M581.2606,267.83055a11.20358,11.20358,0,0,1-10.1786,3.06814c-.93168-.1933-1.10674,1.27323-.18117,1.46528a12.55465,12.55465,0,0,0,11.26775-3.36919.763.763,0,0,0,.12808-1.03612.742.742,0,0,0-1.03612-.12809Z" transform="translate(-158.48656 -49)" fill="#fff"/><path d="M289.76115,427.01757a27.21469,27.21469,0,0,1,27.21472,27.21463v.00007a27.21951,27.21951,0,0,1-22.00338,26.71066V525.4537h-17.3711V427.01757Z" transform="translate(-158.48656 -49)" fill="#3f3d56"/><path d="M956.3755,687.75631v9.32q-5.92492,7.57507-12.21,14.85c-.45.53-.91,1.05-1.38,1.58-.71.83-1.44,1.65-2.17,2.47v-28.22Z" transform="translate(-158.48656 -49)" fill="#cacaca"/><path d="M910.13551,668.31631a13.15545,13.15545,0,0,0-13.14,13.14v18.91a13.15544,13.15544,0,0,0,13.14,13.14h32.65c.47-.53.93-1.05,1.38-1.58q6.285-7.275,12.21-14.85c.26-.33.52-.66.77-.99,2.26-2.89,4.48-5.83,6.66-8.79,1.7-2.32,3.39-4.66,5.04-7.02.01-.01.02-.01.02-.02q4.14-5.88006,8.07-11.94Z" transform="translate(-158.48656 -49)" fill="#3f3d56"/><path d="M994.20552,506.45633a18.99865,18.99865,0,0,0-6.24-1.04h-5.37a19.6558,19.6558,0,0,0-5.77.87,19.4381,19.4381,0,0,0-13.61,18.52v157.75c0,.59.03,1.17.08,1.74a18.42377,18.42377,0,0,0,.51,3c1.7-2.32,3.39-4.66,5.04-7.02.01-.01.02-.01.02-.02q4.14-5.88006,8.07-11.94c1.41-2.17,2.81-4.36,4.18-6.56a398.42493,398.42493,0,0,0,26.24-49.56V524.8063A19.4074,19.4074,0,0,0,994.20552,506.45633Z" transform="translate(-158.48656 -49)" fill="#3f3d56"/><path d="M332.34556,687.75631v18.83q-6.75-8.07-13.05-16.5c-.58-.77-1.15-1.55-1.72-2.33Z" transform="translate(-158.48656 -49)" fill="#cacaca"/><path d="M362.82554,668.31631h-58.73q2.775,4.275,5.65,8.45,3.81,5.56494,7.83,10.99c.57.78,1.14,1.56,1.72,2.33q6.315,8.43,13.05,16.5c.84,1.02,1.69,2.03,2.55,3.04q1.65,1.95,3.35,3.88h24.58a13.14692,13.14692,0,0,0,13.13-13.14v-18.91A13.14689,13.14689,0,0,0,362.82554,668.31631Z" transform="translate(-158.48656 -49)" fill="#3f3d56"/><path d="M299.31553,507.60632a19.50894,19.50894,0,0,0-8.96-2.19h-5.36a19.18041,19.18041,0,0,0-7.39,1.47,19.41125,19.41125,0,0,0-12,17.92v67.77a398.87517,398.87517,0,0,0,38.49,75.74q2.775,4.275,5.65,8.45v-151.96A19.421,19.421,0,0,0,299.31553,507.60632Z" transform="translate(-158.48656 -49)" fill="#3f3d56"/><polygon points="359.293 751.489 376.909 747.447 369.703 677.575 343.703 683.541 359.293 751.489" fill="#9e616a"/><path d="M533.80549,739.8663a20.481,20.481,0,0,1-.73-3.77,23.0475,23.0475,0,0,0-.88-4.45,23.3559,23.3559,0,0,0-1.85-3.8c-.35-.64-.72-1.28-1.05-1.93a15.98769,15.98769,0,0,1-.86-2.01c-10.31-30.45-24.7-71.83-34.68-96.05-5.87-14.25-41.97-18.99-76.03-20.2-4.15-.15-8.27-.25-12.3-.3-1.39-.02-2.77-.04-4.14-.05-3.5-.02-6.91-.02-10.19.02-.43,0-.86,0-1.29.01q-3.58492.03-6.95.1c-15.42.3-26.75,1-28.77,1.13l-17.99-11.31-3.51-2.21-.37,2.21-2.83,16.86-4.83,28.77,12.11,3.4,7.86,2.2,46.57,13.06,9.9,2.78.06.02,16.67-.03,45.58-.08,2.2,5.83a10.27966,10.27966,0,0,0,4.21,14.84l1.71.81,20.83,55.12a24.93775,24.93775,0,0,0,4.47,13.93c.35.51.73,1.01,1.13,1.5l.46.55,8.01,15.67,4.77-1.1,20.3-4.65.1-.2c.01-.03.27-.58.65-1.54v-.03C533.73549,760.9963,537.25551,750.14633,533.80549,739.8663Z" transform="translate(-158.48656 -49)" fill="#2f2e41"/><path d="M583.29554,805.13632a26.11068,26.11068,0,0,0-31.38995-19.67993l-14.07-6.35-3.94,2.77-16.34,11.46-1.35.31-4.38,1,6.05,26.37,65.62-15.05Z" transform="translate(-158.48656 -49)" fill="#2f2e41"/><path d="M496.25554,764.47628l-5.95,48.24-.2,1.58-.88,7.19c-3.43-1.4-6.85-2.85-10.23-4.34q-4.74-2.085-9.41-4.3v-48.36Z" transform="translate(-158.48656 -49)" fill="#9e616a"/><circle cx="208.65458" cy="347.77063" r="36.07316" fill="#9e616a"/><path d="M500.08555,782.88632c-1-1.37-2.04-2.8-2.1-4.17-.23-4.83-.47-9.61-.72-14.29-.18-3.27-.36-6.5-.54-9.66-.02-.4-.05-.8-.07-1.19-.31-5.23,1.24-10.75,2.73-16.1.49-1.75.98-3.52,1.42-5.29a38.42915,38.42915,0,0,0,1.37-12.13c-2.56-32.39-14-62.85-19.13-67.98-7.8-7.80005-43.07-25.82-65.32-36.78-3.95-1.95-7.49-3.67-10.39-5.07-2.57-1.25-4.64-2.24-6.05-2.92-1.08-.51-1.78-.84-2.02-.96l-.12-.06-8.05.9-1.29.15-7.1.8-46.19,5.18-7.13.8-10.09,1.14-9.11,1.02-.34.03-.06.34c0,.01-.02.08-.04.21a95.31933,95.31933,0,0,0,0,29.84c1.18,6.71,3.41,13.53,7.37,19.27.54.78,1.1,1.53,1.7,2.25a.35136.35136,0,0,0,.08.1c.13.16.26.32.4.48v.01a32.91949,32.91949,0,0,0,17.37,10.57c1,.27,2.02.49,3.07.67,11.19,1.98,23.83,3.8,36.22,5.4,5.13.66,10.22,1.28,15.14,1.86,9.85,1.16,19.05,2.14,26.63,2.92,10.62,1.08,18.07995,1.75,19.74,1.89l18.55,86.54a12.68282,12.68282,0,0,0,2.14,15.61005l1.52,1.47,1.76,8.24,5.8,7.76.73.98h25.59l.14-.17c.09-.12,9.09-11.68,8.48-25.45C502.11552,785.6763,501.12553,784.32632,500.08555,782.88632Z" transform="translate(-158.48656 -49)" fill="#2f2e41"/><path d="M499.38676,492.85125a13.74186,13.74186,0,0,0-17.30957,12.0159l-29.97253,9.3678,1.25036,19.60266L495.49623,520.014a13.81626,13.81626,0,0,0,3.89053-27.16275Z" transform="translate(-158.48656 -49)" fill="#9e616a"/><path d="M479.83079,525.28988l-22.401,8.4784-.57275,1.11114a11.30159,11.30159,0,0,1-15.22367,4.86756h0l-50.35028,19.05676S368.79759,536.30227,352.7888,516.221l5.45606-33.55917a64.28875,64.28875,0,0,1,7.9234-22.08783c32.83123,7.19925,51.67743,53.09457,51.67743,53.09457l59.17013-11.29Z" transform="translate(-158.48656 -49)" fill="#7cd7fe"/><path d="M362.01506,430.91562c-9.03089,2.43905-18.98715-.80369-26.03488-6.95475s-11.45636-14.86706-13.99659-23.87c-1.86041-6.59357-2.74252-13.91272.1933-20.10282s10.83713-10.36639,16.933-7.23959c-3.7605-4.38129-1.88181-11.62772,2.51016-15.37573s10.42282-4.8226,16.16669-5.41c8.33593-.85247,16.9465-.9479,24.87878,1.75269s15.13953,8.60486,17.62207,16.60809a12.64027,12.64027,0,0,0,15.07663-3.404,11.45186,11.45186,0,0,1-6.30975,12.41715l12.15371-3.94034c2.09021,4.42428-1.57232,9.9-6.25589,11.31683s-9.73932-.1318-14.1838-2.17871-8.75159-4.63473-13.57923-5.433-10.49835.7529-12.73138,5.10684c-1.16959,2.28042-1.23059,4.95123-1.90964,7.42248s-2.3992,5.03348-4.9541,5.23572c-1.61417.12778-3.19455-.732-4.8042-.55621a5.17663,5.17663,0,0,0-4.05441,3.96139,15.19889,15.19889,0,0,0-.01441,5.98l3.08725,23.598Z" transform="translate(-158.48656 -49)" fill="#2f2e41"/><path d="M407.33555,610.22628l-1.91-2.87-13.94-20.91-.28-.41,4.31-22.36,1.34-6.98,2.93-15.19-.85-34.77-.61-24.6-.09-3.86-3.09-9.42a33.92883,33.92883,0,0,0-18-20.11l-20.8-9.52a10.141,10.141,0,0,0-13.43133,5.0278q-.13966.3067-.25867.62219c-2.85.39-15.22,2.47-25.71,10.61a39.05759,39.05759,0,0,0-14.48,22.62c-.02.07-.03.14-.05.21-1.39,6.21-2.43,16.01-3.1,29.29q-.675,13.17-.85,30.86a448.62329,448.62329,0,0,0,3.31,58.82c.23,1.86.47,3.71.72,5.57.21,1.56,1.71,3.05,3.16,4.48,1.33,1.31,2.7,2.67,2.89,3.9.17,1.08-.52,2.21-1.34,3.39-.1.15-.21.3-.31.45-1.02,1.45-2.07,2.96-1.8,4.55.63,3.58,1,7.22,1.35,10.74a113.67147,113.67147,0,0,0,2.1,14.42c.35,1.46.75,2.93,1.2,4.4,1.05,3.45,2.32,6.89,3.56,10.25,1.07,2.92,2.18,5.92,3.12,8.88.18.55.35,1.09.51,1.63l.08.28.29.05h.02a11.059,11.059,0,0,1,1.4-1.96.40628.40628,0,0,1,.09-.1q.21-.255.48-.54c2.19-2.39,6.95-6.68,17.37-13.91,2.33-1.61005,4.94-3.36005,7.86-5.28,10.71-7.01,25.67-16.14,46.57-27.93q7.86-4.44,16.87-9.39Z" transform="translate(-158.48656 -49)" fill="#7cd7fe"/><path d="M519.50551,830.20633a26.05825,26.05825,0,0,0-18.53-7.67l-10.87-8.24-1.43-1.09-9.68,3.94c3.38,1.49,6.8,2.94,10.23,4.34q16.095,6.57,32.87,11.74A26.32544,26.32544,0,0,0,519.50551,830.20633Z" transform="translate(-158.48656 -49)" fill="#2f2e41"/><polygon points="602.45 750.808 588.836 744.297 607.537 687.392 627.63 697.002 602.45 750.808" fill="#ffb6b6"/><path d="M852.20552,790.63632q-5.94,3.705-12.03,7.2v.03l-.06.01-.02.01-1.54.38-2.21-5.84-5.1-13.47-13.9-36.7,21.61-5.33,1.22,4.95,9.14,37.07,2.62,10.6Z" transform="translate(-158.48656 -49)" fill="#ffb6b6"/><path d="M797.09065,552.47476a14.19226,14.19226,0,0,0,19.22613,4.82342,13.59374,13.59374,0,0,0,1.82441-1.32208l43.04089,24.7L859.3127,555.321l-40.58576-19.5683a14.13964,14.13964,0,0,0-17.15167-2.234,13.6071,13.6071,0,0,0-4.66107,18.67029Q797.00061,552.33295,797.09065,552.47476Z" transform="translate(-158.48656 -49)" fill="#ffb6b6"/><path d="M842.67756,571.37515l7.60828,4.63666L884.455,596.848a20.147,20.147,0,0,0,27.76562-6.39325l.01123-.01794a19.71264,19.71264,0,0,0,2.51264-13.91608l-15.18677-75.87311a21.05274,21.05274,0,0,0-27.6366-15.97635,20.04468,20.04468,0,0,0-12.64721,24.35077l15.88019,53.84573-24.3418-11.34869Z" transform="translate(-158.48656 -49)" fill="#7cd7fe"/><path d="M982.78553,646.18631c-.01-.03-.03-.14-.06-.31l-.03-.11q-.10493-.54006-.24-1.2a269.77488,269.77488,0,0,0-7.85-29.97,92.0572,92.0572,0,0,0-7.47-17.34c-.1-.18-.21-.36-.32-.54l-.37-.6-3.11,1.14-.12.04-47.28,17.33-13.67,5.01-.43.16-2.33,9.5-32.69-4.23-26.64-3.45-7.65-.99a25.21416,25.21416,0,0,0-18.79,5.14,26.21121,26.21121,0,0,0-9.97,17.64c-.1.76-.16,1.53-.19,2.29l-2.31,86.17v.11l1.07,2.14,22.35,44.84h15.49l9.14-.01h7.43l-15.45-39.09.35-.53a17.18859,17.18859,0,0,0,1.77-15.23l1.74-5.04c3.61-10.41,1.9-15.41-.26-21.73a53.6921,53.6921,0,0,1-3.38-16.03l-.36-7.13c9.07,1.59,17.52,3.36,25.66,5.14q4.08.885,8.08,1.79c7.59,1.69,14.92,3.32,22.1,4.68,14.54,2.77,28.47,4.46,42.78,3.41.28-.02.56-.04.84-.07,3.48-.28,6.98-.73,10.52-1.36,1.99-.36,3.99-.77,6.01-1.25.56-.14,1.13-.28,1.69-.42a19.44433,19.44433,0,0,0,4.46-1.79,29.18727,29.18727,0,0,0,5.55-4.02c.01-.01.02-.01.02-.02q4.1401-5.88006,8.07-11.94c1.41-2.17,2.81-4.36,4.18-6.56C983.11549,656.26632,983.8755,650.72628,982.78553,646.18631Z" transform="translate(-158.48656 -49)" fill="#2f2e41"/><path d="M983.11549,629.9963c-.15-.64-.34-1.29-.54-1.92a136.81363,136.81363,0,0,0-5.54-14.02c-2.36-5.2-5.19-10.77-8.56-16.8q-2.445-4.38006-5.26-9.11-1.41-2.37-2.93-4.83a2.54243,2.54243,0,0,0-.13-.22l-.29-.48-46.78,6.26-17.42,2.33-1.04,8.68-.25,2.15c-.01,0-.01,0,0,.01l-.7,5.86v.01l-.93,7.74-.08-.01-25.85-3.35-26.64-3.45-14.31-1.85a25.21439,25.21439,0,0,0-18.79,5.14,26.21148,26.21148,0,0,0-9.97,17.64c-.09.7-.15,1.42-.18,2.13l-13.5,31.99a206.39584,206.39584,0,0,0-15.26,60.04l-9.9,31.65,1.41.13,20.98,1.95,5.54.52,12.2-17.81c1.39-2.03,2.71-4.12,3.94-6.26a95.07433,95.07433,0,0,0,5.39-10.84l26.39-62.8q3.06006.52515,6.06,1,13.87509,2.25,26.64,3.67c27.67,3.09,51.63,3.33,72.96.71q8.985-1.095,17.37-2.88,3.07507-.64509,6.07-1.39c.47-.11.93-.22,1.39-.34a25.5193,25.5193,0,0,0,17.85-16.68A26.0381,26.0381,0,0,0,983.11549,629.9963Z" transform="translate(-158.48656 -49)" fill="#2f2e41"/><ellipse cx="725.15362" cy="359.04736" rx="32.35846" ry="33.07962" fill="#ffb6b6"/><path d="M960.47554,584.4263c-.05005-.37-.11005-.74-.19-1.11-.77-4.06-2.77-8.04-4.7-11.9-1.84-3.68-3.59-7.16-4.31-10.62-.71-3.41-.29-6.83.12-10.13.44-3.58.9-7.28-.13-10.87a266.743,266.743,0,0,0-21.4-52.86,40.18779,40.18779,0,0,0-33.35-28.06,9.47224,9.47224,0,0,0,1.07-5.46,9.25973,9.25973,0,0,0-3.41-6.27,8.92657,8.92657,0,0,0-6.59-1.92l-15.04,1.69a9.21972,9.21972,0,0,0-8.01,10.21,9.96051,9.96051,0,0,0,.5,2.18c-13.96,17.78-21.13,33.98-21.79,49.3v.01a52.23228,52.23228,0,0,0,.03,5.31,52.90749,52.90749,0,0,0,3.68,16.67,71.09855,71.09855,0,0,0,9.96,17.13q1.26,1.59,2.61,3.12,1.26,1.5,2.82,3.15l2.63,4.12,2.45,3.85,13.1,30.23,6.67-.22.93,6.65.22,1.55,4.32,15.47.32,1.16,5.91-2.81,35.26-16.74,26.36-12.52Z" transform="translate(-158.48656 -49)" fill="#7cd7fe"/><path d="M847.35139,530.43625a70.78161,70.78161,0,0,0,12.50183,20.12768c.90247,1.07758,1.85541,2.13611,2.85279,3.19647l5.11883,8.03162c18.86908-14.14349,34.15711-69.83228,34.15711-69.83228l-21.2898-4.14141Z" transform="translate(-158.48656 -49)" opacity="0.2" style="isolation:isolate"/><path d="M834.46217,444.21731a14.22489,14.22489,0,0,1-4.80353,19.25037,13.647,13.647,0,0,1-2.02545.9935l1.50708,49.60324-21.48071-13.5221,1.86206-45.031a14.18544,14.18544,0,0,1,6.10992-16.20468,13.57541,13.57541,0,0,1,18.642,4.589Q834.37007,444.05518,834.46217,444.21731Z" transform="translate(-158.48656 -49)" fill="#ffb6b6"/><path d="M831.02827,495.3406l-23.62237,3.3591,1.01568,48.91812a20.46788,20.46788,0,0,0,10.00629,17.249h0a19.61136,19.61136,0,0,0,23.426-2.65973l55.7699-53.64279a21.14538,21.14538,0,0,0,1.55817-29.03614h0a20.054,20.054,0,0,0-28.2608-2.37747q-.23841.20142-.47046.41016a20.57267,20.57267,0,0,0-1.57032,1.56406l-36.82531,42.36373Z" transform="translate(-158.48656 -49)" fill="#7cd7fe"/><path d="M852.80549,789.38632l-.87.16-11.76,2.17-3.83.71-6.03,1.11,2.14,8.63c2.57-1.39,5.11-2.82,7.64-4.28l.02-.01.06-.01v-.03q6.09-3.47993,12.03-7.2c.28-.17.56-.34.84-.53Z" transform="translate(-158.48656 -49)" fill="#2f2e41"/><path d="M765.28553,790.51632l-14.73-7.06-2.31-1.11-3.69,9.06-25.76,5.67a6.11226,6.11226,0,0,0-1,11.63l25.17,10.27,7.99-7.19-1.96,9.65,9.48,3.87,10.38995-33.07Z" transform="translate(-158.48656 -49)" fill="#2f2e41"/><path d="M970.2281,393.70089c-5.50024-6.41418-8.11523-14.92419-12.51227-22.20782-4.39709-7.28369-12.04883-13.80261-20.13244-12.10761-5.57233,1.16852-9.87879,6.08564-12.059,11.56769-2.17975,5.482-2.58838,11.52756-2.97046,17.45014.135-12.17115-7.88373-23.97028-18.92975-27.854-11.04517-3.88363-24.26428.4484-31.205,10.22647a16.8664,16.8664,0,0,0-22.40161-.47024c-6.20825,5.54874-7.58215,16.10983-3.01642,23.18738s14.4538,9.71414,21.7096,5.78885l2.56518,2.35968c-1.44391,5.05014,1.3562,11.01556,6.06323,12.91659,3.81684,1.54175,9.20533,1.28513,10.63361,5.29062.99817,2.79877-.86743,5.78616-2.852,7.93683-1.98407,2.15063-4.34015,4.37152-4.57843,7.34759-.36011,4.49042,4.28027,7.63605,8.49854,8.58341,10.17144,2.28445,21.45739-2.42572,27.31988-11.4021q.16947-.25965.36853-.52a39.27851,39.27851,0,0,0,7.90057-30.03345c-.32977-2.07467.00251-3.61783,1.43293-4.10916,6.18255-2.12369,23.50433,2.33353,28.74652,6.36188,5.24261,4.02835,9.44061,9.3595,14.49005,13.64783,5.04986,4.28839,11.48462,7.59625,17.89618,6.42846,5.135-.93527,9.50348-4.66327,12.44189-9.16,2.938-4.49671,4.629-9.73825,6.14374-14.9473C994.42616,406.54232,978.88563,403.79647,970.2281,393.70089Z" transform="translate(-158.48656 -49)" fill="#2f2e41"/><path d="M866.81166,590.88228v190.2q-5.43,3.735-11,7.27v-184.86c0-5.36-1.8-9.71-4.01-9.72h-166.49c-2.22.01-4.01,4.36-4.02,9.72v245.46c-2.22.22-4.44.43-6.66.61-.92.08-1.85.15-2.77.22-.53-.98-1.05-1.97-1.57-2.97v-255.93c0-1.48.06-2.97.16-4.44.9-12.48,5.37-21.6,10.6-21.62h175a4.68163,4.68163,0,0,1,1.84.39c4.38,1.86,7.84,10.02,8.71,20.56995C866.74166,587.4623,866.82167,589.17226,866.81166,590.88228Z" transform="translate(-158.48656 -49)" fill="#e4e4e4"/><path d="M599.68166,590.88228v257.31c-.15.24-.3.47-.44995.71q-5.64-.57-11.23005-1.31v-244.1c0-5.36-1.91-9.71-4.26-9.72h-176.71c-2.35.01-4.26,4.36-4.26,9.72v169.46q-5.925-4.365-11.68-8.95v-173.12c0-1.48.06-2.97.17-4.44.95-12.48,5.7-21.6,11.26-21.62h185.73a5.13975,5.13975,0,0,1,1.95.39c4.65,1.86,8.33,10.02,9.26,20.56995C599.61165,587.4623,599.68166,589.17226,599.68166,590.88228Z" transform="translate(-158.48656 -49)" fill="#e4e4e4"/><polygon points="381.974 456.372 393.555 507.327 400.955 515.433 406.294 515.433 384.291 422.787 383.202 438.526 383.202 438.537 381.974 456.372" fill="#3f3d56"/><path d="M579.02553,567.03634a.98144.98144,0,0,0-.13-.22,2.01218,2.01218,0,0,0-.45-.64l-1.35-1.35-7.1-7.11a2.80645,2.80645,0,0,0-1.95-.8h-.03l-5.01.03-4.31.03-6.02.04-41,.26-26.94995.17a2.785,2.785,0,0,0-2.75,2.77,2.8983,2.8983,0,0,0,.26,1.17l.52,1.11,1.09,2.33,1.42,3.05.7,1.5a2.775,2.775,0,0,0,2.51,1.6h88.01a2.82417,2.82417,0,0,0,2.54-3.94Z" transform="translate(-158.48656 -49)" fill="#3f3d56"/><path d="M485.267,567.87393l.69482,1.50549a2.7989,2.7989,0,0,0,2.51307,1.59815h88.01351a2.819,2.819,0,0,0,2.5362-3.9375.83939.83939,0,0,0-.12744-.22Z" transform="translate(-158.48656 -49)" opacity="0.17" style="isolation:isolate"/><polygon points="383.202 438.526 383.202 438.537 402.044 515.433 406.294 515.433 384.291 422.787 383.202 438.526" opacity="0.17" style="isolation:isolate"/><path d="M571.2455,272.3363l-2.76-.37a2.89235,2.89235,0,0,0-2.13.57l-1.65,1.27-18.37,22.98a2.89215,2.89215,0,0,0-1.1,1.92l-1.03,7.82-25.64,195.09a2.92535,2.92535,0,0,0,.51,2.05l12.08,33.3.36.52.78,1.11a2.93839,2.93839,0,0,0,1.66,1.14l1.75.44a2.8957,2.8957,0,0,0,2.34-.42,2.85162,2.85162,0,0,0,1.24-2.02l3.13-23.78v-.01l2-15.26,1.69-12.87v-.01l27.64-210.23a2.88664,2.88664,0,0,0-2.48578-3.23819Z" transform="translate(-158.48656 -49)" fill="#3f3d56"/><path d="M564.70131,273.80719,531.15358,536.97073l.36444.51514.77734,1.10669a2.92912,2.92912,0,0,0,1.66046,1.14093l1.75251.44055a2.90561,2.90561,0,0,0,3.57922-2.438l34.455-262.15662a2.89623,2.89623,0,0,0-2.49323-3.24777l-2.76715-.36368a2.8548,2.8548,0,0,0-2.131.57264Z" transform="translate(-158.48656 -49)" opacity="0.17" style="isolation:isolate"/><polygon points="405.226 232.333 387.423 257.744 366.263 418.745 377.735 441.504 405.226 232.333" fill="#7cd7fe"/><polygon points="578.645 456.372 567.064 507.327 559.664 515.433 554.325 515.433 576.329 422.787 577.417 438.526 577.417 438.537 578.645 456.372" fill="#3f3d56"/><path d="M792.86549,557.44632l-67.94-.43-6.03-.04-4.3-.03-5.01-.03h-.04a2.76479,2.76479,0,0,0-1.94.8l-8.46,8.46a2.184,2.184,0,0,0-.45.64.98106.98106,0,0,0-.13.22,2.82405,2.82405,0,0,0,2.54,3.94h88.01a2.80048,2.80048,0,0,0,2.52-1.6l.69-1.5,1.42-3.05,1.61-3.44a2.74191,2.74191,0,0,0,.26-1.17A2.785,2.785,0,0,0,792.86549,557.44632Z" transform="translate(-158.48656 -49)" fill="#3f3d56"/><path d="M792.32533,567.87393l-.69482,1.50549a2.7989,2.7989,0,0,1-2.51307,1.59815H701.104a2.819,2.819,0,0,1-2.5362-3.9375.83939.83939,0,0,1,.12744-.22Z" transform="translate(-158.48656 -49)" opacity="0.17" style="isolation:isolate"/><polygon points="577.417 438.526 577.417 438.537 558.575 515.433 554.325 515.433 576.329 422.787 577.417 438.526" opacity="0.17" style="isolation:isolate"/><path d="M759.02553,501.6163l-26.67-202.91a2.89215,2.89215,0,0,0-1.1-1.92l-18.36-22.98-1.65-1.27a2.92888,2.92888,0,0,0-2.14-.57l-2.76.37a2.89378,2.89378,0,0,0-2.5,3.24h0l27.64,210.24v.01l1.69,12.86,2.01,15.27v.02l3.12,23.76a2.832,2.832,0,0,0,1.25,2.02,2.87292,2.87292,0,0,0,2.33.42l1.75-.44a2.93875,2.93875,0,0,0,1.66-1.14l.78-1.11.36-.52,12.08-33.3A2.87577,2.87577,0,0,0,759.02553,501.6163Z" transform="translate(-158.48656 -49)" fill="#3f3d56"/><path d="M712.89106,273.80719l33.54767,263.16354-.36444.51514-.77734,1.10669a2.92912,2.92912,0,0,1-1.66046,1.14093l-1.75251.44055a2.90561,2.90561,0,0,1-3.57922-2.438L703.84981,275.57946a2.89621,2.89621,0,0,1,2.49322-3.24777l2.76709-.36368a2.85484,2.85484,0,0,1,2.131.57264Z" transform="translate(-158.48656 -49)" opacity="0.17" style="isolation:isolate"/><polygon points="555.393 232.333 573.196 257.744 594.356 418.745 582.884 441.504 555.393 232.333" fill="#7cd7fe"/><path d="M382.98552,605.93631a8.20787,8.20787,0,0,1-.13,1.5c-.04.24-.09.47-.15.7a8.69249,8.69249,0,0,1-8.41,6.49h-37.63v89.75a8.64834,8.64834,0,0,1-1.77,5.25c-.86-1.01-1.71-2.02-2.55-3.04q-6.75-8.07-13.05-16.5v-75.46h-16.8a8.68518,8.68518,0,0,1-.72-17.34q.36-.02994.72-.03h71.8A8.687,8.687,0,0,1,382.98552,605.93631Z" transform="translate(-158.48656 -49)" fill="#3f3d56"/><path d="M982.61549,605.93631a8.69426,8.69426,0,0,1-5.58,8.12,8.50786,8.50786,0,0,1-2.43.54c-.22.02-.45.03-.67.03h-16.79v81.46c-.25.33-.51.66-.77.99q-5.92492,7.57507-12.21,14.85a8.62246,8.62246,0,0,1-4.39-7.55v-89.75h-37.64a8.5026,8.5026,0,0,1-3.24-.63,8.65932,8.65932,0,0,1-5.22-6.08v-.01a8.58484,8.58484,0,0,1,.7-5.86c-.01-.01-.01-.01,0-.01a8.495,8.495,0,0,1,1.54-2.16,8.69217,8.69217,0,0,1,6.22-2.62h71.8a8.6785,8.6785,0,0,1,8.68005,8.67694Z" transform="translate(-158.48656 -49)" fill="#3f3d56"/><path d="M982.04078,438.59832A27.21465,27.21465,0,0,0,954.82606,465.813v.00007a27.21947,27.21947,0,0,0,22.00336,26.71066v44.51077h17.37109V438.59832Z" transform="translate(-158.48656 -49)" fill="#3f3d56"/><path d="M506.89146,537.97268a13.74187,13.74187,0,0,0-19.845,7.08374L455.668,546.28l-4.2279,14.61608,44.609,2.28357a13.81627,13.81627,0,0,0,10.8425-25.207Z" transform="translate(-158.48656 -49)" fill="#9e616a"/><path d="M481.1165,564.75583l-32.23215-.4018-4.08-.05524-65.57766-.82623s-17.80811-16.9892-33.31458-34.48083l2.17343-15.72034a64.22782,64.22782,0,0,1,21.53522-39.76663c22.209,14.83987,35.08838,44.21371,35.08838,44.21371l21.595,9.66309h0a94.547,94.547,0,0,1,43.17008,12.643l7.10162,4.11426Z" transform="translate(-158.48656 -49)" fill="#7cd7fe"/><path d="M582.38551,846.81631h116.26q-11.89508,1.74-24.01,2.75h-68.24Q594.27549,848.56125,582.38551,846.81631Z" transform="translate(-158.48656 -49)" fill="#ccc"/><path d="M605.7599,788.28689c2.25012-20.307,14.54736-40.45007,33.79376-47.306a94.135,94.135,0,0,0,.86872,64.624c3.07843,7.9967,7.335,16.57037,4.64868,24.70721-1.67139,5.063-5.87348,8.97565-10.596,11.4502-4.72278,2.47454-9.9845,3.69415-15.18048,4.89l-1.01422.86194C609.75807,828.9451,603.50972,808.5939,605.7599,788.28689Z" transform="translate(-158.48656 -49)" fill="#ccc"/><path d="M639.75062,741.36166a80.45974,80.45974,0,0,0-19.395,45.54614,34.65012,34.65012,0,0,0,.53913,10.84272,19.87261,19.87261,0,0,0,5.06537,9.15045c2.26025,2.4176,4.85217,4.62878,6.48541,7.55377a12.168,12.168,0,0,1,.72723,9.92468c-1.35321,4.05481-4.0827,7.38159-6.86493,10.54218-3.08917,3.50921-6.35345,7.10522-7.62481,11.71966-.154.55908-1.01258.28742-.85877-.27087,2.212-8.02844,9.91461-12.67493,13.52069-19.92761,1.68262-3.38422,2.35559-7.29609.6886-10.82245-1.45776-3.08368-4.1286-5.36615-6.43835-7.79425a21.20542,21.20542,0,0,1-5.2862-8.76264,32.032,32.032,0,0,1-.954-10.782,78.06184,78.06184,0,0,1,5.38343-23.796,81.88692,81.88692,0,0,1,14.40747-23.79114c.37921-.43622.98156.234.60479.66736Z" transform="translate(-158.48656 -49)" fill="#fff"/><path d="M620.525,781.45565a12.07151,12.07151,0,0,1-9.357-12.52142.45063.45063,0,0,1,.90009.0329,11.178,11.178,0,0,0,8.72784,11.62976c.56543.12646.29132.98456-.27087.85876Z" transform="translate(-158.48656 -49)" fill="#fff"/><path d="M624.6526,805.82608a23.26706,23.26706,0,0,0,10.21-13.53778c.156-.55854,1.01459-.287.85877.27087a24.20091,24.20091,0,0,1-10.65308,14.06567C624.573,806.9277,624.16,806.12729,624.6526,805.82608Z" transform="translate(-158.48656 -49)" fill="#fff"/><path d="M628.99574,756.63333a6.833,6.833,0,0,0,6.47046-.41529c.49127-.309.90375.49183.41571.79877a7.6569,7.6569,0,0,1-7.157.47522.46538.46538,0,0,1-.29395-.56482.45249.45249,0,0,1,.56482-.29394Z" transform="translate(-158.48656 -49)" fill="#fff"/><path d="M698.9723,776.40347c-.30127.20166-.60248.40332-.904.61255a89.985,89.985,0,0,0-11.38483,9.136c-.27789.25458-.55572.51673-.82574.77869a94.868,94.868,0,0,0-20.2243,28.4762,92.12776,92.12776,0,0,0-4.87146,13.12292c-1.77936,6.20307-3.21509,13.07031-6.8332,18.1731a15.80937,15.80937,0,0,1-1.21081,1.53631l-33.30744.44532c-.07623-.037-.1527-.06641-.22924-.10334l-1.329.07862c.05029-.23627.10754-.48029.15777-.71656.02863-.1372.06464-.27447.0932-.41168.02143-.09149.04322-.183.05731-.26678.007-.03046.01441-.061.02155-.08386.0141-.08381.03607-.1601.05029-.23627q.47415-2.047.97882-4.09461c-.00012-.00763-.00012-.00763.00721-.01532a135.46412,135.46412,0,0,1,10.99865-30.07812c.14838-.2832.29627-.574.45984-.85742a87.91273,87.91273,0,0,1,7.7356-12.082,77.70723,77.70723,0,0,1,5.096-5.989,64.62764,64.62764,0,0,1,16.009-12.32934c11.86181-6.467,25.65985-9.06848,38.47827-5.38642C698.32356,776.20694,698.64436,776.30142,698.9723,776.40347Z" transform="translate(-158.48656 -49)" fill="#ccc"/><path d="M698.903,776.82724a80.46034,80.46034,0,0,0-42.90778,24.6889,34.64827,34.64827,0,0,0-6.09759,8.98193,19.8727,19.8727,0,0,0-1.46479,10.35578c.34912,3.29114,1.08735,6.61719.63037,9.93591a12.16792,12.16792,0,0,1-5.39471,8.36218c-3.52173,2.42279-7.704,3.43573-11.82837,4.28418-4.57928.942-9.35071,1.8479-13.144,4.76685-.4596.3537-.98151-.38019-.52258-.73334,6.59979-5.07849,15.54748-4.15094,22.79327-7.77069,3.381-1.689,6.27356-4.40729,7.06567-8.2265.69263-3.33978-.06567-6.77033-.448-10.09961a21.20591,21.20591,0,0,1,1.055-10.17914,32.03187,32.03187,0,0,1,5.7298-9.18323,78.06159,78.06159,0,0,1,18.62524-15.7586,81.88722,81.88722,0,0,1,25.82751-10.3216c.56543-.12.64289.77777.08112.897Z" transform="translate(-158.48656 -49)" fill="#fff"/><path d="M659.41322,797.26492a12.07155,12.07155,0,0,1,.06769-15.63123c.37854-.43859,1.07794.129.69885.56818a11.17807,11.17807,0,0,0-.0332,14.54047C660.52192,797.18374,659.78645,797.70382,659.41322,797.26492Z" transform="translate(-158.48656 -49)" fill="#fff"/><path d="M648.036,819.2084a23.267,23.267,0,0,0,16.3028-4.662c.46088-.352.98291.38172.52258.73334a24.201,24.201,0,0,1-16.97436,4.81677c-.57782-.05639-.42572-.94421.149-.88806Z" transform="translate(-158.48656 -49)" fill="#fff"/><path d="M681.12129,782.54562a6.83313,6.83313,0,0,0,5.41632,3.56415c.57825.04907.42548.93683-.149.88806a7.65711,7.65711,0,0,1-6.00067-3.92957.4654.4654,0,0,1,.10535-.628A.45255.45255,0,0,1,681.12129,782.54562Z" transform="translate(-158.48656 -49)" fill="#fff"/><circle cx="557.76249" cy="745.10129" r="10.59285" fill="#ccc"/><path d="M750.833,835.63c-.65.19-1.31006.38-1.97.56q-8.985,2.52-18.1,4.61a10.59009,10.59009,0,1,1,20.07-5.17Z" transform="translate(-158.48656 -49)" fill="#ccc"/><path d="M811.353,812.89c-.81.38-1.62.76-2.43,1.13-.88.42-1.77.81995-2.65,1.22-.99.45-1.97.89-2.96,1.33-3.72,1.66-7.48,3.26-11.25,4.8-.05-.08-.1-.17-.15-.26a10.59448,10.59448,0,0,1,18.67-10.02A11.741,11.741,0,0,1,811.353,812.89Z" transform="translate(-158.48656 -49)" fill="#ccc"/><circle cx="595.12418" cy="719.10031" r="10.59285" fill="#ccc"/><path d="M656.44167,187.70229c-62.31,16.39-131.35,26.36-201.55,29.09a252.36923,252.36923,0,0,1-30.88-.21c-22.59-1.9-41.94-9-63.49-12.88-10.36-1.86-21.9-3.22-32.33-5.23q3.615-4.485,7.36-8.86c22.49,1.9,45.33,8.12,68.09,11.01,38.69,4.92,82.04-.57,111.37-14.11,14.23-6.57,25.13-14.77,39.31-21.37a18.3201,18.3201,0,0,1,6.17-1.89c4.49-.41,8.43,1.4,11.64,3.02,23.79,12.01,58.33,21.77,90.39,16.4C664.9117,184.54226,660.37166,186.67226,656.44167,187.70229Z" transform="translate(-158.48656 -49)" fill="#fff"/><path d="M798.31185,229.96737c.29278-.05347.58636-.09522.87933-.14594a23.903,23.903,0,0,1-3.46472-2.61035Z" transform="translate(-158.48656 -49)" fill="#fff"/><path d="M990.23171,253.66225q-20.085,1.605-40.38,2.39a254.385,254.385,0,0,1-30.88-.21c-22.59-1.91-41.94-9-63.49-12.88-19.75-3.55-43.75-5.26-56.29-13.14,32.41-5.61,65.99,5.81,99.41,10.06a237.37577,237.37577,0,0,0,81.01-4Q985.16166,244.6123,990.23171,253.66225Z" transform="translate(-158.48656 -49)" fill="#fff"/><path d="M688.8101,403.66644c-31.36871-107.6687-49.83173-218.682-49.83173-330.82721V64.71161H628.55571v8.12744c0,112.14539-18.46381,223.15863-49.83185,330.82776a57.3065,57.3065,0,0,0-2.28144,16.04205v.00006a15.634,15.634,0,0,0,15.634,15.634h20.84527a20.84531,20.84531,0,1,0,41.69062,0h16.22094v44.92822a8.9589,8.9589,0,1,0,2,.16662V435.3429h2.62439a15.634,15.634,0,0,0,15.634-15.634v-.00006A57.30652,57.30652,0,0,0,688.8101,403.66644Z" transform="translate(-158.48656 -49)" fill="#fff"/></svg>