<svg xmlns="http://www.w3.org/2000/svg" data-name="Layer 1" width="864.67004" height="644.31682" viewBox="0 0 864.67004 644.31682" xmlns:xlink="http://www.w3.org/1999/xlink"><path d="M995.81163,686.87956c.953-28.43923-12.06029-56.69712-37.376-66.38728,6.03226,29.06448.91168,61.76074-14.168,90.46519-5.87327,11.18006-13.49619,23.16227-11.403,34.56617,1.30228,7.09583,6.34492,12.59347,12.39774,16.08027,6.05323,3.4868,13.10557,5.21946,20.07153,6.91837l1.23364,1.21148C982.11106,743.7792,994.85866,715.31879,995.81163,686.87956Z" transform="translate(-167.29535 -127.58386)" fill="#f2f2f2"/><path d="M958.086,621.02439c12.6911,17.73218,19.1657,40.46964,17.76085,63.85455a51.4408,51.4408,0,0,1-2.92267,15.17652,33.52345,33.52345,0,0,1-8.8602,12.78572c-3.61949,3.37365-7.65758,6.45676-10.50925,10.54365a18.15772,18.15772,0,0,0-2.99935,13.89044c1.06327,5.683,4.18118,10.35333,7.40565,14.79123,3.58015,4.92743,7.38572,9.97725,8.22323,16.44334.10148.78345,1.34662.40718,1.2453-.37509-1.45713-11.24988-11.20716-17.79158-14.75319-27.96214-1.65464-4.74577-1.80321-10.22529,1.216-15.154,2.64016-4.30993,6.802-7.49247,10.49221-10.88057a35.97817,35.97817,0,0,0,9.08866-12.24175,48.26248,48.26248,0,0,0,3.48584-15.08951,103.57987,103.57987,0,0,0-2.69242-33.33865,96.83443,96.83443,0,0,0-15.208-33.37507c-.4384-.61253-1.40816.32279-.97263.93132Z" transform="translate(-167.29535 -127.58386)" fill="#fff"/><path d="M976.70548,677.24547a20.13531,20.13531,0,0,0,15.48817-17.48431c.06306-.80951-1.19174-.76885-1.25487.04174a18.64073,18.64073,0,0,1-14.43668,16.239.61036.61036,0,1,0,.20338,1.20353Z" transform="translate(-167.29535 -127.58386)" fill="#fff"/><path d="M966.09286,711.34268a27.07541,27.07541,0,0,1-11.4437-19.00088c-.10433-.78267-1.3495-.40664-1.24529.37509a28.15236,28.15236,0,0,0,11.95225,19.742c.62617.42633,1.35951-.69223.73674-1.11625Z" transform="translate(-167.29535 -127.58386)" fill="#fff"/><path d="M969.93754,642.45527a9.15434,9.15434,0,0,1-8.89-.61234c-.61928-.43489-1.352.68419-.73675,1.11625a10.24884,10.24884,0,0,0,9.83013.69961.76077.76077,0,0,0,.521-.78931.5453.5453,0,0,0-.72434-.41421Z" transform="translate(-167.29535 -127.58386)" fill="#fff"/><path d="M868.92779,669.79682c.37733.28374.75466.56748,1.13083.86187a101.68438,101.68438,0,0,1,13.956,12.84443c.33434.35769.667.726.98892,1.0941a110.23444,110.23444,0,0,1,22.33506,39.96166,115.865,115.865,0,0,1,4.12334,18.39456c1.22332,8.6924,1.83685,18.313,5.8309,25.47389a18.14594,18.14594,0,0,0,1.371,2.15653l46.10163.783c.1131-.0514.22505-.0922.33866-.14359l1.82737.11639c-.02233-.331-.05276-.67287-.07509-1.0039-.01214-.19219-.03456-.38456-.0467-.57675-.01134-.12818-.02319-.25643-.02593-.37379-.00362-.04271-.00775-.08542-.013-.11754-.00274-.11736-.01792-.22432-.02233-.331-.16466-1.912-.33959-3.82428-.53609-5.73684.00166-.01065.00166-.01065-.00694-.02147-1.50665-14.56363-4.27331-28.95666-9.21958-42.16009-.149-.39717-.29573-.805-.46575-1.20251a103.13132,103.13132,0,0,0-8.30415-16.951,88.69306,88.69306,0,0,0-5.86576-8.40857,73.2016,73.2016,0,0,0-19.72821-17.337c-15.15277-9.1103-33.76614-12.81829-52.28142-7.725C869.8669,669.52482,869.40306,669.65555,868.92779,669.79682Z" transform="translate(-167.29535 -127.58386)" fill="#f2f2f2"/><path d="M868.93879,670.39036c22.00348,4.9417,41.56136,17.23083,54.55234,34.76846a40.4279,40.4279,0,0,1,6.65448,12.60329,27.28811,27.28811,0,0,1-.04594,14.50446c-1.14435,4.60571-2.83532,9.25843-2.86728,13.90658a14.41538,14.41538,0,0,0,5.804,11.73231c4.398,3.40868,9.99482,4.84673,15.5443,6.05422,6.16164,1.34069,12.59692,2.63174,17.27206,6.73627.56646.49732,1.43745-.52752.87185-1.02409-8.13395-7.14119-20.72868-5.88554-30.05114-10.98771-4.35-2.38077-7.81613-6.19994-8.14849-11.55046-.29063-4.6788,1.44918-9.47765,2.64718-14.13662a29.57124,29.57124,0,0,0,.57883-14.25513,37.744,37.744,0,0,0-6.104-12.88333,88.27752,88.27752,0,0,0-22.66848-22.15024,97.48322,97.48322,0,0,0-33.74729-14.57332c-.76007-.1707-1.04754,1.08572-.29244,1.25531Z" transform="translate(-167.29535 -127.58386)" fill="#fff"/><path d="M919.6039,699.19106c6.19135-6.26355,7.47724-15.63161,3.04171-21.883-.437-.61585-1.52073.17542-1.08319.79209,4.15532,5.8565,2.91691,14.50077-2.87066,20.35583-.60907.61617.30655,1.34777.91214.73512Z" transform="translate(-167.29535 -127.58386)" fill="#fff"/><path d="M930.98,729.965a28.74709,28.74709,0,0,1-21.67362-6.60463c-.56851-.495-1.43967.52966-.87185,1.0241a29.92167,29.92167,0,0,0,22.574,6.82448c.81264-.07621.77973-1.31975-.0285-1.244Z" transform="translate(-167.29535 -127.58386)" fill="#fff"/><path d="M892.45157,678.481a11.2946,11.2946,0,0,1-8.22634,4.96357c-.81176.06591-.778,1.30944.0285,1.244a12.656,12.656,0,0,0,9.11-5.4724.63366.63366,0,0,0-.02015-.87961.65814.65814,0,0,0-.892.14449Z" transform="translate(-167.29535 -127.58386)" fill="#fff"/><path d="M855.21675,654.58386c.09619-.10907-.6383-.20148-2-.28021V608.58386h-66v3.68h-29.71a13.1554,13.1554,0,0,0-13.13995,13.14v18.91a13.149,13.149,0,0,0,13.14,13.14l30.45.04,13.37.02h.92l13.38.02,37.37.05h3.22C856.68672,657.05383,854.76674,655.11383,855.21675,654.58386Z" transform="translate(-167.29535 -127.58386)" fill="#3f3d56"/><path d="M855.92661,655.43286c-2.18229,3.18306-3.95091,3.066-5.49866,1.00639a16.466,16.466,0,0,1-1.95042-3.82371c-4.70324-12.06-7.77991-39.727-16.64941-30.05256-1.75106,1.91069-3.52979,3.806-5.31462,5.67985-3.318,3.48952-6.78327,7.27707-10.21683,10.623-.00184.00984.07785-.36185.06617-.35385-1.69341,1.65689-.41761-12.67271-1.08791-16.70466-.1423-.871-.37469-1.26033-.74492-.91249-.02848-.39192-.04706-.782-.0442-1.17816a16.4412,16.4412,0,0,1,.09434-1.86447c.05564-.56948.13273-1.14507.24119-1.72505l28.99752-155.06194a19.43457,19.43457,0,0,1,16.78241-15.70266,20.06639,20.06639,0,0,1,5.83162.20547l5.27849.98711a19.16365,19.16365,0,0,1,5.93264,2.16751l.00984.00184a19.41982,19.41982,0,0,1,9.55287,20.45453Z" transform="translate(-167.29535 -127.58386)" fill="#3f3d56"/><polygon points="441.008 616.176 427.394 609.665 446.095 552.76 466.188 562.37 441.008 616.176" fill="#a0616a"/><path d="M699.57463,734.58587c-.99.62012-1.98,1.23-2.98,1.84009-1.99,1.22-4,2.41992-6.01,3.59985-1.01.59009-2.03,1.18018-3.04,1.76026v.02978l-.06.01-.02.01-1.54.38013-2.21-5.84009-1.02-2.68994-1.44-3.81006-2.64-6.97-13.9-36.69995,21.61-5.33008.81,3.31006h.01l.4,1.63989,7.55005,30.62012,1.54,6.26.05.18994.93,3.74.80005,3.24.88995,3.62012Z" transform="translate(-167.29535 -127.58386)" fill="#a0616a"/><path d="M828.48677,605.70385c-1.37,2.2-2.77,4.39-4.18,6.56q-3.93009,6.06-8.07,11.94c0,.01-.01.01-.02.02a28.23348,28.23348,0,0,1-5.3,3.87c-.08.06-.17.1-.25.15a19.5397,19.5397,0,0,1-4.46,1.79c-.56.13995-1.13.28-1.69.42-2.02.48-4.02.89-6.01,1.25-3.54.63-7.04,1.08-10.52,1.36-.28.03-.56.05-.84.07-14.31,1.05-28.24-.64-42.78-3.41-7.18006-1.36-14.51-2.99-22.1-4.68005-2.48-.56-4.97-1.11-7.49-1.66-.19-.04-.39-.09-.59-.13-3.6-.79-7.26-1.57-11.01-2.34-4.72-.97-9.59-1.91-14.65-2.8l.36,7.13a53.66277,53.66277,0,0,0,3.38,16.03c2.16,6.32,3.87,11.32.26,21.73l-1.74,5.04a17.21286,17.21286,0,0,1-1.77,15.23l-.35.53,14.51,36.71.94,2.38h-7.43006l-9.13995.01h-15.49l-22.35-44.84-1.07-2.14v-.11l2.31-86.17c.03-.76.09-1.53.19-2.29a26.19821,26.19821,0,0,1,9.97-17.64,25.22965,25.22965,0,0,1,18.79-5.14l7.65.99,15.63,2.02,11.01,1.43.22.03,32.47,4.2,2.33-9.5.43-.16,13.67-5.01,47.28-17.33.12-.04,3.11-1.14.37.6c.11005.18006.22.36005.32.54a92.67789,92.67789,0,0,1,7.47,17.34,272.21265,272.21265,0,0,1,7.85,29.97q.135.66.24,1.2l.03.11c.03.17.05.28.06.31C831.24678,594.67382,830.48677,600.21386,828.48677,605.70385Z" transform="translate(-167.29535 -127.58386)" fill="#2f2e41"/><path d="M830.48231,573.94769c-.15-.64-.34-1.29-.54-1.92a136.82,136.82,0,0,0-5.54-14.02c-2.36-5.2-5.19-10.77-8.56-16.8q-2.445-4.38008-5.26-9.11-1.41-2.37-2.93-4.83a2.54253,2.54253,0,0,0-.13-.22l-.29-.48-46.78,6.26-17.42,2.33-1.04,8.68-.25,2.15c-.01,0-.01,0,0,.01l-.7,5.86v.01l-.93,7.74-.08-.01-25.85-3.35-26.64-3.45-14.31-1.85a25.2144,25.2144,0,0,0-18.79,5.14,26.21145,26.21145,0,0,0-9.97,17.64c-.09.7-.15,1.42-.18006,2.13l-13.5,31.99a206.39624,206.39624,0,0,0-15.26,60.04l-9.9,31.65,1.41.13,20.98,1.95,5.54.52,12.2-17.81c1.39-2.03,2.71-4.12,3.94-6.26a95.07447,95.07447,0,0,0,5.39-10.84l26.39-62.8q3.06006.52515,6.06,1,13.87509,2.25,26.64,3.67c27.67,3.09,51.63,3.33,72.96.71q8.985-1.095,17.37-2.88,3.07508-.64508,6.07-1.39c.47-.11.93-.22,1.39-.34a25.51931,25.51931,0,0,0,17.85-16.68A26.038,26.038,0,0,0,830.48231,573.94769Z" transform="translate(-167.29535 -127.58386)" fill="#2f2e41"/><path d="M612.65236,734.46771l-14.73-7.06-2.31-1.11-3.69,9.06-25.76,5.67005a6.11225,6.11225,0,0,0-1,11.63l25.17,10.27,7.99-7.19-1.96,9.65,9.48,3.87,10.38995-33.07Z" transform="translate(-167.29535 -127.58386)" fill="#2f2e41"/><polygon points="535.881 592.93 536.821 595.31 535.881 595.31 535.881 592.93" fill="#2f2e41"/><path d="M527.17677,547.44384c0-5.36-1.8-9.71-4.01-9.72h-166.49c-2.22.01-4.01,4.36-4.02,9.72v220.643a2.00263,2.00263,0,0,1-1.80871,1.99364q-2.42567.23283-4.85127.43337c-.04,0-.08.01-.12.01-.88.08-1.76.13995-2.64.21h-.01q-.679-1.2554-1.34226-2.5327a2.01129,2.01129,0,0,1-.22774-.92907V534.83386c0-1.48.06-2.97.16-4.44a56.88446,56.88446,0,0,1,.75-6.02c1.69-9.29,5.51-15.58,9.85-15.6h175a4.68266,4.68266,0,0,1,1.84.38995,7.17355,7.17355,0,0,1,2.27,1.59,14.06971,14.06971,0,0,1,2.23,3.05c2.14,3.77,3.67,9.39,4.21,15.93,0,.06.01.12.01.18.14,1.62006.21,3.27.2,4.92l.14,21.43.09,12.78.27,40.1.1,14.24.44,146.2h0a2,2,0,0,1-2,2h-8.04a2,2,0,0,1-2-2Z" transform="translate(-167.29535 -127.58386)" fill="#3f3d56"/><polygon points="241.203 321.74 229.622 372.695 222.222 380.801 216.883 380.801 238.887 288.155 239.975 303.894 239.975 303.905 241.203 321.74" fill="#3f3d56"/><path d="M464.23231,501.3977l-67.94-.43-6.03-.04-4.3-.03-5.01-.03h-.04a2.7648,2.7648,0,0,0-1.94.8l-8.46,8.46a2.1843,2.1843,0,0,0-.45.64.98151.98151,0,0,0-.13.22,2.82406,2.82406,0,0,0,2.54,3.94h88.01a2.80051,2.80051,0,0,0,2.52-1.6l.69-1.5,1.42-3.05,1.61-3.44a2.74187,2.74187,0,0,0,.26-1.17A2.785,2.785,0,0,0,464.23231,501.3977Z" transform="translate(-167.29535 -127.58386)" fill="#3f3d56"/><path d="M463.69215,511.82531l-.69482,1.50549a2.79886,2.79886,0,0,1-2.51306,1.59815H372.47078a2.819,2.819,0,0,1-2.5362-3.9375.83915.83915,0,0,1,.12745-.22Z" transform="translate(-167.29535 -127.58386)" opacity="0.17" style="isolation:isolate"/><polygon points="239.975 303.894 239.975 303.905 221.133 380.801 216.883 380.801 238.887 288.155 239.975 303.894" opacity="0.17" style="isolation:isolate"/><path d="M430.39235,445.56768l-26.67-202.91a2.89213,2.89213,0,0,0-1.1-1.92l-18.36-22.98-1.65-1.27a2.92888,2.92888,0,0,0-2.14-.57l-2.76.37a2.89377,2.89377,0,0,0-2.5,3.24h0l27.64,210.24v.01l1.69,12.86,2.01,15.27v.02l3.12,23.76a2.832,2.832,0,0,0,1.25,2.02,2.87288,2.87288,0,0,0,2.33.42l1.75-.44a2.93887,2.93887,0,0,0,1.66-1.14l.78-1.11.36-.52,12.08-33.3A2.87576,2.87576,0,0,0,430.39235,445.56768Z" transform="translate(-167.29535 -127.58386)" fill="#3f3d56"/><path d="M384.25789,217.75857l33.54767,263.16354-.36445.51514-.77734,1.10669a2.929,2.929,0,0,1-1.66046,1.14093l-1.7525.44055a2.90559,2.90559,0,0,1-3.57923-2.438L375.21663,219.53085a2.8962,2.8962,0,0,1,2.49322-3.24777l2.76709-.36368a2.85478,2.85478,0,0,1,2.131.57263Z" transform="translate(-167.29535 -127.58386)" opacity="0.17" style="isolation:isolate"/><polygon points="217.951 97.701 235.754 123.112 256.914 284.113 245.442 306.872 217.951 97.701" fill="#7cd7fe"/><polygon points="600.559 642.325 588.35 642.554 622.284 524.675 634.493 528.446 600.559 642.325" fill="#3f3d56"/><path d="M847.92677,770.13385l-12.2-.23-33.48-112.39-.46-1.48,7.83-2.42c1.55.03,3.16.05,4.81994.07l1.19,3.85Z" transform="translate(-167.29535 -127.58386)" fill="#3f3d56"/><path d="M698.0467,723.40243l-15.43434,5.34764-2.42243.83663,3.75277,9.03418-14.3149,22.15427a6.11226,6.11226,0,0,0,7.47254,8.96762l25.11138-10.41248.61847-10.731,5.3972,8.23619,9.45926-3.92038L701.80078,722.1058Z" transform="translate(-167.29535 -127.58386)" fill="#2f2e41"/><path d="M604.36834,392.52992a10.96212,10.96212,0,0,0,16.39318,3.716l32.45523,21.54528.0619-20.2433-30.82953-17.35625a11.02152,11.02152,0,0,0-18.08078,12.33823Z" transform="translate(-167.29535 -127.58386)" fill="#a0616a"/><path d="M628.61482,401.88645l15.14242-17.22675,61.6558,36.60256,81.73137-7.48483a27.638,27.638,0,0,1,30.04021,30.06933h0a27.66745,27.66745,0,0,1-30.06734,24.97236l-92.04938-8.52Z" transform="translate(-167.29535 -127.58386)" fill="#e6e6e6"/><path d="M818.31183,402.15229,818.17,401.974l-38.63032-3.8118L753.43943,444.1381c-22.436,27.42872-6.13259,46.34432-5.15661,49.15724l-7.78777,35.90746,1.74547,12.01714.87173,3.56972,88.89623,46.45008-18.27127-60.86916,17.84011-55.5092A78.19588,78.19588,0,0,0,818.31183,402.15229Z" transform="translate(-167.29535 -127.58386)" fill="#e6e6e6"/><path d="M860.63674,361.69384c.02.49.03.98.03,1.46a33.56954,33.56954,0,0,1-43.98005,31.86l-6.17-2.01c-.05-.02-.11-.03-.16-.05l-10.17-3.32a6.95622,6.95622,0,0,1,.02-1.29c-15.17-6.48,5.8-27.77,11.01-43.76.81-2.49-27.04-.63-25.72-2.76-.29-.15-.58-.3-.85-.45a41.21494,41.21494,0,0,1,45.52-17.74c.22.05.45.12.67.18,19.76.49,30.14,14.26,30.14,32.14A49.0377,49.0377,0,0,1,860.63674,361.69384Z" transform="translate(-167.29535 -127.58386)" fill="#2f2e41"/><path d="M843.51674,368.73382a32.21657,32.21657,0,0,1-40.61,20.63q-1.38-.45-2.7-1.02a32.20211,32.20211,0,0,1-17.93-39.58,31.88,31.88,0,0,1,3.22-6.94,32.20583,32.20583,0,0,1,58.02,26.91Z" transform="translate(-167.29535 -127.58386)" fill="#a0616a"/><path d="M810.51674,393.00384c-.05-.02-.11-.03-.16-.05l-10.17-3.32a6.95622,6.95622,0,0,1,.02-1.29c.30245-3.34842,2.65306-6.855,5.808-10.64057a19.48865,19.48865,0,0,0-8.5681-30.949q-.13017-.04521-.25993-.09051a90.16507,90.16507,0,0,1-11.68994-4.84c-.29-.15-.58-.3-.85-.45-2.54-1.4-4.38-2.8-5.19-4.14a29.74691,29.74691,0,0,1,37.51-19.06l5.9,1.92005a29.63556,29.63556,0,0,1,17.2,14.64c4.16,2.98,7.44,7.36005,10.01,12.53C862.99678,373.20385,838.05678,401.84387,810.51674,393.00384Z" transform="translate(-167.29535 -127.58386)" fill="#2f2e41"/><path d="M829.98677,549.88385a8.70012,8.70012,0,0,1-5.58,8.12,8.47242,8.47242,0,0,1-2.43.54c-.22.02-.45.03-.67.03h-16.79v81.46c-.25.33-.51.66-.77.99-1.44,1.84-2.9,3.68-4.38,5.49-.32.4-.64.79-.95,1.18-.49.59-.97,1.18-1.45,1.76-.17.2-.33.39-.49.59-.82.98-1.64,1.96-2.48,2.94v.01c-.01.01-.01.01-.01.02l-.42.48c-.67.79-1.34,1.59-2.03,2.38a8.3605,8.3605,0,0,1-2.44-2.05,8.07147,8.07147,0,0,1-1.06-1.64c-.01-.01-.01-.02-.02-.04a.49044.49044,0,0,1-.03-.07,8.54289,8.54289,0,0,1-.84-3.75v-89.75h-37.64a8.38529,8.38529,0,0,1-3.24-.63,8.64983,8.64983,0,0,1-5.22-6.08v-.01a8.55964,8.55964,0,0,1,.7-5.86c-.01-.01-.01-.01,0-.01a7.94376,7.94376,0,0,1,1.53-2.13v-.01c0-.01,0-.01.01-.02a8.70793,8.70793,0,0,1,6.22-2.62h71.80005A8.68493,8.68493,0,0,1,829.98677,549.88385Z" transform="translate(-167.29535 -127.58386)" fill="#3f3d56"/><path d="M877.79737,381.75552a27.21465,27.21465,0,0,0-31.75356,21.7483l0,.00006A27.21946,27.21946,0,0,0,862.76228,433.804l-8.182,43.75231,17.07509,3.19315,18.09448-96.75878Z" transform="translate(-167.29535 -127.58386)" fill="#3f3d56"/><circle cx="685.9214" cy="208" r="14" fill="#2f2e41"/><path d="M1016.41817,375.78216c-6.07446,2.02655-12.56934,2.37164-18.97192,2.48236-18.63013.32208-37.73224-1.31024-54.68818-9.03552s-31.55371-22.40649-35.323-40.65411c-1.62458-7.86481-1.4336-16.62482-6.38971-22.94391-5.88214-7.49976-17.70288-8.522-25.937-3.72162s-13.04229,14.142-14.44036,23.57007l-3.31684,5.39245c.07758,3.47187,3.83441,5.7807,7.29187,6.10627,3.4574.32556,6.93335-.62714,10.39655-.36957,7.58935.56445,13.77655,7.05609,15.98883,14.33777s1.14709,15.158-.746,22.529-4.59772,14.56164-5.67841,22.09485-.34723,15.70874,4.085,21.89514c3.3266,4.64313,8.39624,7.72162,13.55,10.18384a91.423,91.423,0,0,0,128.842-63.51581C1028.17891,369.84173,1022.49288,373.75561,1016.41817,375.78216Z" transform="translate(-167.29535 -127.58386)" fill="#2f2e41"/><path d="M747.62851,671.82547H719.11387a6.51421,6.51421,0,0,1-6.44483-5.59961,144.98379,144.98379,0,0,1,0-39.04737,6.51459,6.51459,0,0,1,6.33545-5.59863c8.97168-4.02148,18.6333-4.021,28.72217-.00049a6.43873,6.43873,0,0,1,4.89941,2.3628,6.58718,6.58718,0,0,1,1.35938,5.49072,87.6593,87.6593,0,0,0,0,34.53857,6.58721,6.58721,0,0,1-1.35938,5.49073A6.43753,6.43753,0,0,1,747.62851,671.82547Z" transform="translate(-167.29535 -127.58386)" fill="#7cd7fe"/><path d="M744.64219,636.46658h-24a1.5,1.5,0,0,1,0-3h24a1.5,1.5,0,0,1,0,3Z" transform="translate(-167.29535 -127.58386)" fill="#fff"/><path d="M744.64219,648.46658h-24a1.5,1.5,0,0,1,0-3h24a1.5,1.5,0,0,1,0,3Z" transform="translate(-167.29535 -127.58386)" fill="#fff"/><path d="M744.64219,660.46658h-24a1.5,1.5,0,0,1,0-3h24a1.5,1.5,0,0,1,0,3Z" transform="translate(-167.29535 -127.58386)" fill="#fff"/><path d="M406.89219,353.98342v-.00281a.94009.94009,0,0,1,1.02522-.8193l154.28111.411a.93781.93781,0,0,1,1.01823.82211v.00281a.94009.94009,0,0,1-1.02522.8193l-154.28111-.41105A.93782.93782,0,0,1,406.89219,353.98342Z" transform="translate(-167.29535 -127.58386)" fill="#3f3d56"/><path d="M447.69067,449.00376l-6.55091,7.20524a2.07361,2.07361,0,0,1-2.22045.28788,6.595,6.595,0,0,1-2.80367-1.92163,95.87707,95.87707,0,0,0-15.67162-14.2484,6.59613,6.59613,0,0,1-2.17929-2.60882,2.10273,2.10273,0,0,1,.04921-2.20716c.06518-3.942,2.28583-6.38445,6.60116-7.26052.75658-.78764,2.4658-.48829,3.99786.70653a159.1505,159.1505,0,0,1,17.71722,16.10825C447.979,446.49179,448.43507,448.185,447.69067,449.00376Z" transform="translate(-167.29535 -127.58386)" fill="#7cd7fe"/><path d="M430.85353,433.49434l-5.51372,6.06446c-.19037.20938-.64925.10206-1.02522-.23977s-.52637-.78846-.336-.99784l5.51372-6.06445c.19036-.20938.64924-.10206,1.02522.23977S431.04389,433.285,430.85353,433.49434Z" transform="translate(-167.29535 -127.58386)" fill="#fff"/><path d="M436.29843,438.44478l-5.51371,6.06445c-.19037.20938-.64925.10206-1.02522-.23977s-.52637-.78846-.336-.99783l5.51372-6.06446c.19036-.20938.64924-.10206,1.02522.23977S436.4888,438.2354,436.29843,438.44478Z" transform="translate(-167.29535 -127.58386)" fill="#fff"/><path d="M441.74334,443.39521l-5.51372,6.06446c-.19036.20937-.64924.102-1.02522-.23978s-.52637-.78845-.336-.99783l5.51372-6.06446c.19036-.20938.64924-.10206,1.02522.23977S441.93371,443.18583,441.74334,443.39521Z" transform="translate(-167.29535 -127.58386)" fill="#fff"/><path d="M1031.9654,770.71068a1.18647,1.18647,0,0,1-1.19007,1.19h-862.29a1.19,1.19,0,1,1,0-2.38h862.29A1.18651,1.18651,0,0,1,1031.9654,770.71068Z" transform="translate(-167.29535 -127.58386)" fill="#ccc"/><path d="M755.98326,635.375a10.96208,10.96208,0,0,0,2.73695-16.58475l19.5819-33.67626-20.21131,1.13916-15.49669,31.8049a11.02151,11.02151,0,0,0,13.38915,17.317Z" transform="translate(-167.29535 -127.58386)" fill="#a0616a"/><path d="M763.88487,610.61615l-18.09475-14.09376,32.88031-63.71868L766.35,451.66034a27.638,27.638,0,0,1,28.23421-31.77118h0A27.66744,27.66744,0,0,1,821.29636,448.422l-3.04411,92.39271Z" transform="translate(-167.29535 -127.58386)" fill="#e6e6e6"/><path d="M606.96189,409.84055H545.86137a6.18331,6.18331,0,0,1-6.17629-6.17632v-80.904a6.18331,6.18331,0,0,1,6.17629-6.17632h61.10052a6.18331,6.18331,0,0,1,6.17632,6.17632v80.904A6.18331,6.18331,0,0,1,606.96189,409.84055Z" transform="translate(-167.29535 -127.58386)" fill="#e6e6e6"/><path d="M602.667,404.69291H550.15624a5.49012,5.49012,0,0,1-5.48389-5.48389V327.21539a5.49012,5.49012,0,0,1,5.48389-5.48389H602.667a5.4901,5.4901,0,0,1,5.48389,5.48389V399.209A5.4901,5.4901,0,0,1,602.667,404.69291Z" transform="translate(-167.29535 -127.58386)" fill="#fff"/><path d="M597.42869,335.41316H555.39457a1.37088,1.37088,0,1,1,0-2.74175h42.03412a1.37088,1.37088,0,1,1,0,2.74175Z" transform="translate(-167.29535 -127.58386)" fill="#7cd7fe"/><path d="M597.42869,340.83015H555.39457a1.37094,1.37094,0,0,1,0-2.74188h42.03412a1.37094,1.37094,0,1,1,0,2.74188Z" transform="translate(-167.29535 -127.58386)" fill="#7cd7fe"/><path d="M573.61535,346.24715H555.39457a1.37094,1.37094,0,0,1,0-2.74188h18.22078a1.37094,1.37094,0,1,1,0,2.74188Z" transform="translate(-167.29535 -127.58386)" fill="#7cd7fe"/><path d="M597.42869,357.59236H555.39457a1.37088,1.37088,0,1,1,0-2.74175h42.03412a1.37088,1.37088,0,1,1,0,2.74175Z" transform="translate(-167.29535 -127.58386)" fill="#e4e4e4"/><path d="M597.42869,363.00935H555.39457a1.37094,1.37094,0,1,1,0-2.74187h42.03412a1.37094,1.37094,0,1,1,0,2.74187Z" transform="translate(-167.29535 -127.58386)" fill="#e4e4e4"/><path d="M573.61535,368.42635H555.39457a1.37094,1.37094,0,0,1,0-2.74188h18.22078a1.37094,1.37094,0,0,1,0,2.74188Z" transform="translate(-167.29535 -127.58386)" fill="#e4e4e4"/><path d="M597.42869,379.77156H555.39457a1.37087,1.37087,0,1,1,0-2.74174h42.03412a1.37087,1.37087,0,1,1,0,2.74174Z" transform="translate(-167.29535 -127.58386)" fill="#e4e4e4"/><path d="M597.42869,385.18856H555.39457a1.37094,1.37094,0,0,1,0-2.74188h42.03412a1.37094,1.37094,0,1,1,0,2.74188Z" transform="translate(-167.29535 -127.58386)" fill="#e4e4e4"/><path d="M573.61535,390.60555H555.39457a1.37094,1.37094,0,0,1,0-2.74188h18.22078a1.37094,1.37094,0,1,1,0,2.74188Z" transform="translate(-167.29535 -127.58386)" fill="#e4e4e4"/><polygon points="231.746 174.459 395.661 34.256 395.921 34.256 395.921 36.314 396.421 36.314 233.085 176.023 231.746 174.459" fill="#2f2e41"/><path d="M512.21193,463.05469H436.84388a4.44637,4.44637,0,0,0-4.44134,4.44135v46.92377a4.44635,4.44635,0,0,0,4.44134,4.44134h75.368a4.44633,4.44633,0,0,0,4.44141-4.44134V467.496A4.44637,4.44637,0,0,0,512.21193,463.05469Z" transform="translate(-167.29535 -127.58386)" fill="#fff"/><path d="M512.21193,463.05469H436.84388a4.44637,4.44637,0,0,0-4.44134,4.44135v46.92377a4.44635,4.44635,0,0,0,4.44134,4.44134h75.368a4.44633,4.44633,0,0,0,4.44141-4.44134V467.496A4.44637,4.44637,0,0,0,512.21193,463.05469Zm1.45751,33.70594A18.25791,18.25791,0,0,1,495.719,514.94709c-7.64747.09955,4.23126.13837-4.99213.13837-21.09088,0-43.08283-.20154-51.28827-.33222a4.13756,4.13756,0,0,1-4.05225-4.12073v-43.133a1.46245,1.46245,0,0,1,1.45722-1.46082h75.36529a1.46233,1.46233,0,0,1,1.46057,1.457Z" transform="translate(-167.29535 -127.58386)" fill="#cacaca"/><path d="M502.26956,493.00322H444.847a2.468,2.468,0,0,1-2.32-1.636l-8.86851-24.88113a2.463,2.463,0,0,1,2.31649-3.28988l77.013-.13668h.00343a2.463,2.463,0,0,1,2.26374,3.43311l-.13428-.05748.13428.05748-10.722,25.01781A2.46,2.46,0,0,1,502.26956,493.00322Z" transform="translate(-167.29535 -127.58386)" fill="#cacaca"/><circle cx="307.1893" cy="365.41936" r="6.13579" fill="#3f3d56"/><path d="M309.42677,739.99383c-1.2,8.84-7.21,16.82-14.94,22.03a39.4878,39.4878,0,0,1-5.81,3.25,50.53805,50.53805,0,0,1-6.87,2.52c-10.3,3.01-21.43,3.14-32.26,3.2q-16.425.105-32.84.21c-8.63.05-17.54.05-25.51-3.26a3.67629,3.67629,0,0,1-.35-.15c-7.83-3.38-14.5-10.81-14.31-19.31a17.41907,17.41907,0,0,1,2.46-8.49,24.8603,24.8603,0,0,1,3.64-4.76c4.34-4.5,10.36-8.03,16-10.87,9.3-4.67,19.81-10.73,22.53-20.33a17.23132,17.23132,0,0,0,.58-3.09c.64-6.6-2.57-12.67-6.66-18.1-.4-.54-.82-1.08-1.25-1.62-.92-1.15-1.87-2.28-2.81-3.36-.4-.46-.8-.93-1.21-1.4-3.78-4.38-7.59-9.06-9.58-14.29a20.67434,20.67434,0,0,1-1.41-6.86c-.22-8.49,9.27-17.04,16.45-13.03q5.28-.51,10.56-1.05c4.32-.43,8.62-.86,12.93-1.3h.01c.97-.08,1.92-.18,2.87-.28q13.455-1.335,26.89-2.69c3.98-.39,8.66-.54,11.25,2.52,2.82,3.34,1.36,8.62-1.43,11.99-2.79,3.36-6.66,5.74-9.28,9.22-3.39,4.5-4.18,10.19-3.21,15.77a28.30686,28.30686,0,0,0,1.26,4.76,31.82759,31.82759,0,0,0,4.03,7.77c5.88,8.24,14.59,13.92,22.32,20.45,7.74,6.54,14.98,14.84,16.04,24.9.03.29.06.59.07.88995A22.89661,22.89661,0,0,1,309.42677,739.99383Z" transform="translate(-167.29535 -127.58386)" fill="#e6e6e6"/><path d="M246.5386,648.42837A113.69289,113.69289,0,0,1,226.806,622.31031a115.96367,115.96367,0,0,1-11.55624-30.47272,111.39246,111.39246,0,0,1-2.38946-32.96776,115.43534,115.43534,0,0,1,23.91248-61.81269q1.26783-1.62618,2.59639-3.20328c.98742-1.17544,2.66528.51744,1.68473,1.68473A112.77721,112.77721,0,0,0,215.6015,555.095a112.14966,112.14966,0,0,0,32.62182,91.64866c1.0935,1.07823-.59141,2.76277-1.68472,1.68473Z" transform="translate(-167.29535 -127.58386)" fill="#e6e6e6"/><path d="M235.81238,499.08013a28.87328,28.87328,0,0,0,2.82968-1.23447c.04648.07174.0919.14469.13849.21629Z" transform="translate(-167.29535 -127.58386)" fill="#e6e6e6"/><path d="M254.20674,478.06384a22.98009,22.98009,0,0,1-2.09,6.28,30.1095,30.1095,0,0,1-12.55,13.02c-.3.16-.61.33-.92.48-.37-.58-.75-1.16-1.11-1.74a40.33863,40.33863,0,0,1-5.58-12.44c-1.16-5.21-.53-11.06,2.81-15.23,3.33-4.17,9.69-6.04,14.3-3.34a10.06417,10.06417,0,0,1,3.3,3.19c-.46.57-.92005,1.12994-1.38,1.7a1.73821,1.73821,0,0,1-.13.15c-.4.5-.81.99-1.21,1.49-1.67,2.05-3.33,4.11-5,6.15a31.634,31.634,0,0,0,7.14.49c.19-.01.39-.02.58-.03C252.97676,478.19384,253.59676,478.14386,254.20674,478.06384Z" transform="translate(-167.29535 -127.58386)" fill="#e6e6e6"/><path d="M220.47676,519.07385l-.64,8.34-.17,2.26c-.18-.09-.37-.18-.55-.26995a48.80259,48.80259,0,0,1-25.47-31.19,47.41035,47.41035,0,0,1-1.25-7.09c3.24-.5,6.49-1.01,9.73-1.51a31.939,31.939,0,0,0-9.66-8.37,48.27121,48.27121,0,0,1,8.75-23.15c.84,13.98,15.48,22.87,20.84,35.8A29.082,29.082,0,0,1,220.47676,519.07385Z" transform="translate(-167.29535 -127.58386)" fill="#e6e6e6"/><path d="M217.69673,592.32385c-.78.04-1.56.06-2.32995.05a48.86751,48.86751,0,0,1-35.44-15.55,47.4625,47.4625,0,0,1-8.73-13.67c.07-.01.13-.02.2-.03,3.24-.5,6.49-1.01,9.73-1.51a31.815,31.815,0,0,0-13.25-10.1,47.65953,47.65953,0,0,1-.16-13.65c7.32,11.93,24.43,12.89,35.24,21.77a29.14718,29.14718,0,0,1,9.95,16.83,27.41945,27.41945,0,0,1,.51,4.94c.01.4.01.79,0,1.18l.24.54Z" transform="translate(-167.29535 -127.58386)" fill="#e6e6e6"/><path d="M249.85677,606.13385c-2.07,2.54-4.14,5.1-6.21,7.64a31.70009,31.70009,0,0,0,7.72.46,48.87473,48.87473,0,0,1-12.77,21.67c-.57.56-1.16,1.11-1.76,1.63-.12.11-.25.22-.37.33l-.54-1.53-.01-.01-3.06-8.47a28.93972,28.93972,0,0,1-7.75-14.21v-.02a27.91454,27.91454,0,0,1-.49-9.6c1.71-13.89,13.45-26.38,10.53-40.07a48.47123,48.47123,0,0,1,14.5,19.67c-1.67,2.05-3.33,4.11-5,6.15a31.634,31.634,0,0,0,7.14.49,46.75867,46.75867,0,0,1,1.36,10.34c.01.5.01.99,0,1.49-1.05,1.3-2.11,2.59-3.16,3.88995A1.73821,1.73821,0,0,1,249.85677,606.13385Z" transform="translate(-167.29535 -127.58386)" fill="#e6e6e6"/><path d="M615.96189,195.84055H554.86137a6.18331,6.18331,0,0,1-6.17629-6.17632V133.76018a6.18331,6.18331,0,0,1,6.17629-6.17632h61.10052a6.18331,6.18331,0,0,1,6.17632,6.17632v55.90405A6.18331,6.18331,0,0,1,615.96189,195.84055Z" transform="translate(-167.29535 -127.58386)" fill="#e6e6e6"/><path d="M611.667,190.69291H559.15624a5.49012,5.49012,0,0,1-5.48389-5.48389V138.21539a5.49012,5.49012,0,0,1,5.48389-5.48389H611.667a5.4901,5.4901,0,0,1,5.48389,5.48389V185.209A5.4901,5.4901,0,0,1,611.667,190.69291Z" transform="translate(-167.29535 -127.58386)" fill="#fff"/><path d="M606.42869,146.41316H564.39457a1.37088,1.37088,0,1,1,0-2.74175h42.03412a1.37088,1.37088,0,1,1,0,2.74175Z" transform="translate(-167.29535 -127.58386)" fill="#7cd7fe"/><path d="M606.42869,151.83015H564.39457a1.37094,1.37094,0,0,1,0-2.74188h42.03412a1.37094,1.37094,0,1,1,0,2.74188Z" transform="translate(-167.29535 -127.58386)" fill="#7cd7fe"/><path d="M582.61535,157.24715H564.39457a1.37094,1.37094,0,0,1,0-2.74188h18.22078a1.37094,1.37094,0,1,1,0,2.74188Z" transform="translate(-167.29535 -127.58386)" fill="#7cd7fe"/><path d="M606.42869,168.59236H564.39457a1.37088,1.37088,0,1,1,0-2.74175h42.03412a1.37088,1.37088,0,1,1,0,2.74175Z" transform="translate(-167.29535 -127.58386)" fill="#e4e4e4"/><path d="M606.42869,174.00935H564.39457a1.37094,1.37094,0,1,1,0-2.74187h42.03412a1.37094,1.37094,0,1,1,0,2.74187Z" transform="translate(-167.29535 -127.58386)" fill="#e4e4e4"/><path d="M582.61535,179.42635H564.39457a1.37094,1.37094,0,0,1,0-2.74188h18.22078a1.37094,1.37094,0,1,1,0,2.74188Z" transform="translate(-167.29535 -127.58386)" fill="#e4e4e4"/></svg>