<svg xmlns="http://www.w3.org/2000/svg" xmlns:xlink="http://www.w3.org/1999/xlink" width="300" height="274" viewBox="0 0 300 274"><defs><linearGradient id="a" x1="1.249" y1="0.782" x2="0.743" y2="2.097" gradientUnits="objectBoundingBox"><stop offset="0" stop-color="#83dcff"/><stop offset="1" stop-color="#0076f7"/></linearGradient><linearGradient id="b" x1="3.733" y1="1.201" x2="1.593" y2="4.033" xlink:href="#a"/><linearGradient id="c" x1="3.52" y1="0.284" x2="1.404" y2="3.084" xlink:href="#a"/><linearGradient id="d" x1="2.041" y1="0.655" x2="1.142" y2="1.787" xlink:href="#a"/><clipPath id="f"><rect width="300" height="274"/></clipPath></defs><g id="e" clip-path="url(#f)"><rect width="300" height="274" fill="#fff"/><g transform="translate(-225.939 -188.023)"><path d="M450.375,282.375a48.381,48.381,0,0,0-10.875,1.2,67.619,67.619,0,0,0-127.125,0,51.857,51.857,0,0,0-14.023-1.051A50.191,50.191,0,0,0,301.574,382.8H326.1a20.422,20.422,0,0,0,20.4-20.4v-9.074a11.908,11.908,0,1,0-8.926,1.652V362.4a11.4,11.4,0,0,1-11.4,11.4H297.6v-.152a41.2,41.2,0,0,1,1.2-82.125,42.967,42.967,0,0,1,15.148,1.8,4.552,4.552,0,0,0,5.7-3,58.632,58.632,0,0,1,112.578,0,4.463,4.463,0,0,0,5.7,3,39.908,39.908,0,0,1,15.148-1.8,41.166,41.166,0,0,1,3.676,81.75v.453H425.023a11.4,11.4,0,0,1-11.4-11.4v-7.5a11.9,11.9,0,1,0-9-1.348v8.848a20.422,20.422,0,0,0,20.4,20.4h24.527c27.523,0,50.551-21.9,50.926-49.426A50.135,50.135,0,0,0,450.375,282.375Zm-113.324,60.9a2.924,2.924,0,1,1,2.926,2.926A2.879,2.879,0,0,1,337.051,343.273Zm73.8,2.926a2.924,2.924,0,1,1,2.922-2.926A2.926,2.926,0,0,1,410.852,346.2Zm0,0" fill="url(#a)"/><path d="M441.523,367.727a4.514,4.514,0,0,0,4.5-4.5v-52.5a9.769,9.769,0,0,0-2.473-6.6,9.592,9.592,0,0,0-10.574-2.477L390,320.023a4.485,4.485,0,0,0-2.852,4.2,4.542,4.542,0,0,0,6.152,4.2l42.973-18.3a.556.556,0,0,1,.453.074.511.511,0,0,1,.223.449V363.3A4.566,4.566,0,0,0,441.523,367.727Zm0,0" fill="url(#b)"/><path d="M365.477,324.227a4.485,4.485,0,0,0-2.852-4.2l-43.648-18.3A9.589,9.589,0,0,0,308.4,304.2a9.769,9.769,0,0,0-2.473,6.6v53.25a4.5,4.5,0,0,0,9,0v-53.4a.511.511,0,0,1,.223-.449.462.462,0,0,1,.3-.074.281.281,0,0,1,.227.074l43.648,18.3A4.614,4.614,0,0,0,365.477,324.227Zm0,0" fill="url(#c)"/><path d="M441.523,388.051a4.514,4.514,0,0,0-4.5,4.5v7.426a.561.561,0,0,1-.375.523l-56.172,17.324V284.7a11.926,11.926,0,1,0-9,0V417.9L315.3,400.5a.561.561,0,0,1-.375-.523V393.3a4.5,4.5,0,0,0-9,0v6.676a9.427,9.427,0,0,0,6.676,9.074l63.3,19.574,63.3-19.574a9.473,9.473,0,0,0,6.75-9.074v-7.426A4.4,4.4,0,0,0,441.523,388.051ZM375.977,276.6a2.926,2.926,0,1,1,2.922-2.926A2.928,2.928,0,0,1,375.977,276.6Zm0,0" fill="url(#d)"/></g></g></svg>