<?xml version="1.0" encoding="UTF-8"?>
<svg xmlns="http://www.w3.org/2000/svg" xmlns:xlink="http://www.w3.org/1999/xlink" width="150px" height="150px" viewBox="0 0 750 750" version="1.1">
<defs>
<linearGradient id="linear0" gradientUnits="userSpaceOnUse" x1="562.5188" y1="351.5004" x2="436.5188" y2="540.5004" gradientTransform="matrix(0.75,0,0,0.75,0,0)">
<stop offset="0" style="stop-color:rgb(51.372549%,86.27451%,100%);stop-opacity:1;"/>
<stop offset="1" style="stop-color:rgb(0%,46.27451%,96.862745%);stop-opacity:1;"/>
</linearGradient>
<linearGradient id="linear1" gradientUnits="userSpaceOnUse" x1="606.936" y1="381.1119" x2="480.936" y2="570.1119" gradientTransform="matrix(0.75,0,0,0.75,0,0)">
<stop offset="0" style="stop-color:rgb(51.372549%,86.27451%,100%);stop-opacity:1;"/>
<stop offset="1" style="stop-color:rgb(0%,46.27451%,96.862745%);stop-opacity:1;"/>
</linearGradient>
<linearGradient id="linear2" gradientUnits="userSpaceOnUse" x1="515.5645" y1="320.1975" x2="389.5644" y2="509.1975" gradientTransform="matrix(0.75,0,0,0.75,0,0)">
<stop offset="0" style="stop-color:rgb(51.372549%,86.27451%,100%);stop-opacity:1;"/>
<stop offset="1" style="stop-color:rgb(0%,46.27451%,96.862745%);stop-opacity:1;"/>
</linearGradient>
<linearGradient id="linear3" gradientUnits="userSpaceOnUse" x1="591.7798" y1="371.0077" x2="465.7798" y2="560.0078" gradientTransform="matrix(0.75,0,0,0.75,0,0)">
<stop offset="0" style="stop-color:rgb(51.372549%,86.27451%,100%);stop-opacity:1;"/>
<stop offset="1" style="stop-color:rgb(0%,46.27451%,96.862745%);stop-opacity:1;"/>
</linearGradient>
</defs>
<g id="surface1">
<path style=" stroke:none;fill-rule:nonzero;fill:rgb(7.058824%,30.196078%,60%);fill-opacity:1;" d="M 171.226562 442.648438 L 171.226562 493.726562 L 162.375 493.726562 L 162.375 442.648438 Z M 171.226562 442.648438 "/>
<path style=" stroke:none;fill-rule:nonzero;fill:rgb(7.058824%,30.196078%,60%);fill-opacity:1;" d="M 186.601562 478.875 C 187.199219 483.300781 191.023438 486.523438 197.324219 486.523438 C 200.625 486.523438 204.898438 485.25 207 483.148438 L 212.699219 488.773438 C 208.875 492.75 202.726562 494.625 197.25 494.625 C 184.800781 494.625 177.449219 486.976562 177.449219 475.425781 C 177.449219 464.476562 184.875 456.601562 196.574219 456.601562 C 208.648438 456.601562 216.148438 464.023438 214.800781 478.875 Z M 206.175781 471.523438 C 205.574219 466.875 201.976562 464.476562 196.800781 464.476562 C 192 464.476562 188.023438 466.800781 186.75 471.523438 Z M 206.175781 471.523438 "/>
<path style=" stroke:none;fill-rule:nonzero;fill:rgb(7.058824%,30.196078%,60%);fill-opacity:1;" d="M 250.125 457.726562 L 258.675781 457.726562 L 258.675781 493.726562 L 250.273438 493.726562 L 249.824219 488.476562 C 247.800781 492.675781 242.175781 494.773438 238.125 494.851562 C 227.476562 494.925781 219.601562 488.324219 219.601562 475.726562 C 219.601562 463.273438 227.851562 456.824219 238.351562 456.898438 C 243.148438 456.898438 247.800781 459.148438 249.824219 462.75 Z M 228.523438 475.648438 C 228.523438 482.550781 233.25 486.601562 239.175781 486.601562 C 253.199219 486.601562 253.199219 464.773438 239.175781 464.773438 C 233.25 464.773438 228.523438 468.824219 228.523438 475.648438 Z M 228.523438 475.648438 "/>
<path style=" stroke:none;fill-rule:nonzero;fill:rgb(7.058824%,30.196078%,60%);fill-opacity:1;" d="M 274.5 457.726562 L 275.175781 461.925781 C 277.949219 457.5 281.699219 456.824219 285.300781 456.824219 C 289.050781 456.824219 292.574219 458.25 294.601562 460.273438 L 290.550781 468 C 288.75 466.5 287.023438 465.675781 284.101562 465.675781 C 279.449219 465.675781 275.101562 468.148438 275.101562 474.824219 L 275.101562 493.800781 L 266.25 493.800781 L 266.25 457.800781 L 274.5 457.800781 Z M 274.5 457.726562 "/>
<path style=" stroke:none;fill-rule:nonzero;fill:rgb(7.058824%,30.196078%,60%);fill-opacity:1;" d="M 324.449219 493.726562 L 324.449219 474.898438 C 324.449219 469.425781 321.449219 465.226562 315.75 465.226562 C 310.273438 465.226562 306.523438 469.800781 306.523438 475.273438 L 306.523438 493.648438 L 297.75 493.648438 L 297.75 457.574219 L 305.699219 457.574219 L 306.300781 462.449219 C 309.976562 458.851562 313.574219 457.050781 318.148438 457.050781 C 326.625 457.050781 333.449219 463.425781 333.449219 474.75 L 333.449219 493.648438 L 324.449219 493.648438 Z M 324.449219 493.726562 "/>
<path style=" stroke:none;fill-rule:nonzero;fill:rgb(7.058824%,30.196078%,60%);fill-opacity:1;" d="M 350.398438 446.773438 L 350.398438 457.648438 L 362.699219 457.648438 L 362.699219 460.648438 L 350.398438 460.648438 L 350.398438 482.625 C 350.398438 487.5 351.449219 490.949219 357.074219 490.949219 C 358.800781 490.949219 360.824219 490.351562 362.625 489.523438 L 363.898438 492.449219 C 361.648438 493.574219 359.398438 494.25 357.074219 494.25 C 349.425781 494.25 346.949219 489.75 346.949219 482.625 L 346.949219 460.648438 L 339.300781 460.648438 L 339.300781 457.648438 L 346.949219 457.648438 L 346.949219 447.148438 Z M 350.398438 446.773438 "/>
<path style=" stroke:none;fill-rule:nonzero;fill:rgb(7.058824%,30.196078%,60%);fill-opacity:1;" d="M 369.226562 475.726562 C 369.226562 464.25 377.398438 456.976562 387.523438 456.976562 C 397.648438 456.976562 405.824219 464.25 405.824219 475.726562 C 405.824219 487.199219 397.648438 494.175781 387.523438 494.175781 C 377.398438 494.175781 369.226562 487.199219 369.226562 475.726562 Z M 402.375 475.726562 C 402.375 466.351562 395.699219 460.273438 387.523438 460.273438 C 379.351562 460.273438 372.675781 466.351562 372.675781 475.726562 C 372.675781 485.101562 379.351562 490.726562 387.523438 490.726562 C 395.773438 490.726562 402.375 485.101562 402.375 475.726562 Z M 402.375 475.726562 "/>
<path style=" stroke:none;fill-rule:nonzero;fill:rgb(7.058824%,30.196078%,60%);fill-opacity:1;" d="M 443.925781 489.148438 C 439.726562 493.273438 435.375 494.851562 430.050781 494.851562 C 419.625 494.851562 410.925781 488.550781 410.925781 475.800781 C 410.925781 463.050781 419.625 456.75 430.050781 456.75 C 435.148438 456.75 439.125 458.175781 443.023438 462.074219 L 437.398438 468 C 435.300781 466.125 432.675781 465.148438 430.199219 465.148438 C 424.199219 465.148438 419.851562 469.5 419.851562 475.800781 C 419.851562 482.699219 424.5 486.300781 430.050781 486.300781 C 432.898438 486.300781 435.75 485.476562 437.925781 483.300781 Z M 443.925781 489.148438 "/>
<path style=" stroke:none;fill-rule:nonzero;fill:rgb(7.058824%,30.196078%,60%);fill-opacity:1;" d="M 456.75 442.648438 L 456.75 493.726562 L 447.898438 493.726562 L 447.898438 442.648438 Z M 456.75 442.648438 "/>
<path style=" stroke:none;fill-rule:nonzero;fill:rgb(7.058824%,30.196078%,60%);fill-opacity:1;" d="M 500.324219 475.726562 C 500.324219 486.074219 493.273438 494.476562 481.574219 494.476562 C 469.875 494.476562 462.898438 486.074219 462.898438 475.726562 C 462.898438 465.449219 470.023438 456.976562 481.5 456.976562 C 492.976562 456.976562 500.324219 465.449219 500.324219 475.726562 Z M 471.824219 475.726562 C 471.824219 481.199219 475.125 486.300781 481.648438 486.300781 C 488.175781 486.300781 491.476562 481.199219 491.476562 475.726562 C 491.476562 470.324219 487.648438 465.074219 481.648438 465.074219 C 475.125 465.074219 471.824219 470.324219 471.824219 475.726562 Z M 471.824219 475.726562 "/>
<path style=" stroke:none;fill-rule:nonzero;fill:rgb(7.058824%,30.196078%,60%);fill-opacity:1;" d="M 515.625 457.726562 L 515.625 476.550781 C 515.625 482.023438 518.625 486.226562 524.324219 486.226562 C 529.800781 486.226562 533.550781 481.648438 533.550781 476.175781 L 533.550781 457.800781 L 542.398438 457.800781 L 542.398438 493.875 L 534.449219 493.875 L 533.851562 489 C 530.101562 492.675781 526.726562 494.398438 521.625 494.398438 C 513 494.398438 506.699219 487.875 506.699219 476.699219 L 506.699219 457.800781 L 515.625 457.800781 Z M 515.625 457.726562 "/>
<path style=" stroke:none;fill-rule:nonzero;fill:rgb(7.058824%,30.196078%,60%);fill-opacity:1;" d="M 587.625 442.648438 L 587.625 493.726562 L 579.300781 493.726562 L 578.699219 488.773438 C 575.925781 493.050781 571.5 494.550781 567.074219 494.550781 C 556.5 494.550781 548.550781 487.5 548.550781 475.726562 C 548.550781 463.273438 556.351562 456.898438 566.851562 456.898438 C 570.675781 456.898438 576.601562 458.925781 578.699219 462.675781 L 578.699219 442.726562 L 587.625 442.726562 Z M 557.476562 475.648438 C 557.476562 481.949219 561.976562 486.226562 567.675781 486.226562 C 573.300781 486.226562 578.101562 482.101562 578.101562 475.648438 C 578.101562 469.351562 573.300781 465.148438 567.675781 465.148438 C 561.976562 465.148438 557.476562 469.199219 557.476562 475.648438 Z M 557.476562 475.648438 "/>
<path style=" stroke:none;fill-rule:nonzero;fill:rgb(7.058824%,30.196078%,60%);fill-opacity:1;" d="M 213.375 509.476562 L 213.375 510.898438 L 208.726562 510.898438 L 208.726562 504.074219 L 210.449219 504.074219 L 210.449219 509.476562 Z M 213.375 509.476562 "/>
<path style=" stroke:none;fill-rule:nonzero;fill:rgb(7.058824%,30.196078%,60%);fill-opacity:1;" d="M 217.949219 505.425781 L 217.949219 506.773438 L 221.25 506.773438 L 221.25 508.125 L 217.949219 508.125 L 217.949219 509.476562 L 221.699219 509.476562 L 221.699219 510.824219 L 216.226562 510.824219 L 216.226562 504 L 221.550781 504 L 221.550781 505.351562 L 217.949219 505.351562 Z M 217.949219 505.425781 "/>
<path style=" stroke:none;fill-rule:nonzero;fill:rgb(7.058824%,30.196078%,60%);fill-opacity:1;" d="M 226.273438 509.625 L 225.75 510.898438 L 223.949219 510.898438 L 226.875 504.074219 L 228.675781 504.074219 L 231.523438 510.898438 L 229.648438 510.898438 L 229.125 509.625 Z M 227.773438 505.800781 L 226.800781 508.351562 L 228.75 508.351562 Z M 227.773438 505.800781 "/>
<path style=" stroke:none;fill-rule:nonzero;fill:rgb(7.058824%,30.196078%,60%);fill-opacity:1;" d="M 237.300781 508.949219 L 235.949219 508.949219 L 235.949219 510.898438 L 234.226562 510.898438 L 234.226562 504.074219 L 237.300781 504.074219 C 239.101562 504.074219 240.148438 504.898438 240.148438 506.476562 C 240.148438 507.523438 239.699219 508.273438 238.875 508.648438 L 240.300781 510.898438 L 238.351562 510.898438 Z M 237.300781 507.601562 C 238.050781 507.601562 238.5 507.226562 238.5 506.476562 C 238.5 505.726562 238.050781 505.425781 237.300781 505.425781 L 235.949219 505.425781 L 235.949219 507.601562 Z M 237.300781 507.601562 "/>
<path style=" stroke:none;fill-rule:nonzero;fill:rgb(7.058824%,30.196078%,60%);fill-opacity:1;" d="M 248.023438 510.898438 L 244.875 506.699219 L 244.875 510.898438 L 243.226562 510.898438 L 243.226562 504.074219 L 244.726562 504.074219 L 247.875 508.273438 L 247.875 504.074219 L 249.523438 504.074219 L 249.523438 510.898438 Z M 248.023438 510.898438 "/>
<path style=" stroke:none;fill-rule:nonzero;fill:rgb(7.058824%,30.196078%,60%);fill-opacity:1;" d="M 260.324219 505.425781 L 260.324219 510.898438 L 258.601562 510.898438 L 258.601562 505.425781 L 256.5 505.425781 L 256.5 504 L 262.351562 504 L 262.351562 505.425781 Z M 260.324219 505.425781 "/>
<path style=" stroke:none;fill-rule:nonzero;fill:rgb(7.058824%,30.196078%,60%);fill-opacity:1;" d="M 269.625 510.898438 L 269.625 508.273438 L 266.773438 508.273438 L 266.773438 510.898438 L 265.050781 510.898438 L 265.050781 504.074219 L 266.773438 504.074219 L 266.773438 506.925781 L 269.625 506.925781 L 269.625 504.074219 L 271.351562 504.074219 L 271.351562 510.898438 Z M 269.625 510.898438 "/>
<path style=" stroke:none;fill-rule:nonzero;fill:rgb(7.058824%,30.196078%,60%);fill-opacity:1;" d="M 276.449219 505.425781 L 276.449219 506.773438 L 279.75 506.773438 L 279.75 508.125 L 276.449219 508.125 L 276.449219 509.476562 L 280.199219 509.476562 L 280.199219 510.824219 L 274.726562 510.824219 L 274.726562 504 L 280.050781 504 L 280.050781 505.351562 L 276.449219 505.351562 Z M 276.449219 505.425781 "/>
<path style=" stroke:none;fill-rule:nonzero;fill:rgb(7.058824%,30.196078%,60%);fill-opacity:1;" d="M 289.199219 505.425781 L 289.199219 507 L 292.273438 507 L 292.273438 508.351562 L 289.199219 508.351562 L 289.199219 510.898438 L 287.476562 510.898438 L 287.476562 504.074219 L 292.574219 504.074219 L 292.574219 505.425781 Z M 289.199219 505.425781 "/>
<path style=" stroke:none;fill-rule:nonzero;fill:rgb(7.058824%,30.196078%,60%);fill-opacity:1;" d="M 301.5 508.050781 C 301.5 509.851562 300.300781 510.976562 298.351562 510.976562 C 296.398438 510.976562 295.199219 509.851562 295.199219 508.050781 L 295.199219 504.074219 L 296.925781 504.074219 L 296.925781 508.050781 C 296.925781 508.949219 297.523438 509.550781 298.351562 509.550781 C 299.175781 509.550781 299.699219 508.949219 299.699219 508.050781 L 299.699219 504.074219 L 301.425781 504.074219 L 301.425781 508.050781 Z M 301.5 508.050781 "/>
<path style=" stroke:none;fill-rule:nonzero;fill:rgb(7.058824%,30.196078%,60%);fill-opacity:1;" d="M 309.449219 510.898438 L 306.300781 506.699219 L 306.300781 510.898438 L 304.648438 510.898438 L 304.648438 504.074219 L 306.148438 504.074219 L 309.300781 508.273438 L 309.300781 504.074219 L 310.949219 504.074219 L 310.949219 510.898438 Z M 309.449219 510.898438 "/>
<path style=" stroke:none;fill-rule:nonzero;fill:rgb(7.058824%,30.196078%,60%);fill-opacity:1;" d="M 317.25 504.074219 C 319.425781 504.074219 320.851562 505.5 320.851562 507.523438 C 320.851562 509.550781 319.351562 510.976562 317.175781 510.976562 L 314.324219 510.976562 L 314.324219 504.148438 L 317.25 504.148438 Z M 316.050781 509.476562 L 317.324219 509.476562 C 318.375 509.476562 319.125 508.648438 319.125 507.449219 C 319.125 506.25 318.300781 505.425781 317.25 505.425781 L 316.050781 505.425781 Z M 316.050781 509.476562 "/>
<path style=" stroke:none;fill-rule:nonzero;fill:rgb(7.058824%,30.196078%,60%);fill-opacity:1;" d="M 325.125 509.625 L 324.601562 510.898438 L 322.800781 510.898438 L 325.726562 504.074219 L 327.523438 504.074219 L 330.375 510.898438 L 328.5 510.898438 L 327.976562 509.625 Z M 326.625 505.800781 L 325.648438 508.351562 L 327.601562 508.351562 Z M 326.625 505.800781 "/>
<path style=" stroke:none;fill-rule:nonzero;fill:rgb(7.058824%,30.196078%,60%);fill-opacity:1;" d="M 339.074219 510.898438 L 339.074219 506.476562 L 337.425781 510.226562 L 336.300781 510.226562 L 334.648438 506.476562 L 334.648438 510.898438 L 333.074219 510.898438 L 333.074219 504.074219 L 334.949219 504.074219 L 336.824219 508.125 L 338.699219 504.074219 L 340.574219 504.074219 L 340.574219 510.898438 Z M 339.074219 510.898438 "/>
<path style=" stroke:none;fill-rule:nonzero;fill:rgb(7.058824%,30.196078%,60%);fill-opacity:1;" d="M 345.675781 505.425781 L 345.675781 506.773438 L 348.976562 506.773438 L 348.976562 508.125 L 345.675781 508.125 L 345.675781 509.476562 L 349.425781 509.476562 L 349.425781 510.824219 L 343.949219 510.824219 L 343.949219 504 L 349.273438 504 L 349.273438 505.351562 L 345.675781 505.351562 Z M 345.675781 505.425781 "/>
<path style=" stroke:none;fill-rule:nonzero;fill:rgb(7.058824%,30.196078%,60%);fill-opacity:1;" d="M 357.226562 510.898438 L 354.074219 506.699219 L 354.074219 510.898438 L 352.5 510.898438 L 352.5 504.074219 L 354 504.074219 L 357.148438 508.273438 L 357.148438 504.074219 L 358.800781 504.074219 L 358.800781 510.898438 Z M 357.226562 510.898438 "/>
<path style=" stroke:none;fill-rule:nonzero;fill:rgb(7.058824%,30.196078%,60%);fill-opacity:1;" d="M 365.25 505.425781 L 365.25 510.898438 L 363.523438 510.898438 L 363.523438 505.425781 L 361.5 505.425781 L 361.5 504 L 367.351562 504 L 367.351562 505.425781 Z M 365.25 505.425781 "/>
<path style=" stroke:none;fill-rule:nonzero;fill:rgb(7.058824%,30.196078%,60%);fill-opacity:1;" d="M 370.875 509.625 L 370.351562 510.898438 L 368.550781 510.898438 L 371.476562 504.074219 L 373.273438 504.074219 L 376.125 510.898438 L 374.25 510.898438 L 373.726562 509.625 Z M 372.375 505.800781 L 371.398438 508.351562 L 373.351562 508.351562 Z M 372.375 505.800781 "/>
<path style=" stroke:none;fill-rule:nonzero;fill:rgb(7.058824%,30.196078%,60%);fill-opacity:1;" d="M 383.398438 509.476562 L 383.398438 510.898438 L 378.75 510.898438 L 378.75 504.074219 L 380.476562 504.074219 L 380.476562 509.476562 Z M 383.398438 509.476562 "/>
<path style=" stroke:none;fill-rule:nonzero;fill:rgb(7.058824%,30.196078%,60%);fill-opacity:1;" d="M 391.574219 504.75 L 390.898438 506.101562 C 390.148438 505.648438 389.25 505.351562 388.726562 505.351562 C 388.273438 505.351562 387.976562 505.5 387.976562 505.875 C 387.976562 507.074219 391.574219 506.398438 391.574219 508.875 C 391.574219 510.226562 390.375 510.976562 388.875 510.976562 C 387.75 510.976562 386.550781 510.523438 385.726562 509.851562 L 386.398438 508.5 C 387.074219 509.101562 388.125 509.550781 388.875 509.550781 C 389.398438 509.550781 389.773438 509.324219 389.773438 508.949219 C 389.773438 507.75 386.175781 508.425781 386.175781 506.023438 C 386.175781 504.75 387.226562 504 388.875 504 C 389.851562 504 390.824219 504.300781 391.574219 504.75 Z M 391.574219 504.75 "/>
<path style=" stroke:none;fill-rule:nonzero;fill:rgb(7.058824%,30.196078%,60%);fill-opacity:1;" d="M 405.675781 507.449219 C 405.675781 509.476562 404.101562 510.976562 402 510.976562 C 399.898438 510.976562 398.324219 509.476562 398.324219 507.449219 C 398.324219 505.425781 399.898438 504 402 504 C 404.023438 504 405.675781 505.5 405.675781 507.449219 Z M 400.050781 507.449219 C 400.050781 508.574219 400.949219 509.476562 402 509.476562 C 403.050781 509.476562 403.875 508.574219 403.875 507.449219 C 403.875 506.324219 403.050781 505.425781 402 505.425781 C 400.949219 505.425781 400.050781 506.324219 400.050781 507.449219 Z M 400.050781 507.449219 "/>
<path style=" stroke:none;fill-rule:nonzero;fill:rgb(7.058824%,30.196078%,60%);fill-opacity:1;" d="M 410.25 505.425781 L 410.25 507 L 413.324219 507 L 413.324219 508.351562 L 410.25 508.351562 L 410.25 510.898438 L 408.523438 510.898438 L 408.523438 504.074219 L 413.625 504.074219 L 413.625 505.425781 Z M 410.25 505.425781 "/>
<path style=" stroke:none;fill-rule:nonzero;fill:rgb(7.058824%,30.196078%,60%);fill-opacity:1;" d="M 426.601562 505.125 L 425.625 506.324219 C 425.175781 505.800781 424.5 505.425781 423.898438 505.425781 C 422.851562 505.425781 422.023438 506.25 422.023438 507.375 C 422.023438 508.5 422.851562 509.398438 423.898438 509.398438 C 424.5 509.398438 425.175781 509.101562 425.625 508.574219 L 426.675781 509.625 C 425.925781 510.375 424.875 510.898438 423.824219 510.898438 C 421.726562 510.898438 420.226562 509.398438 420.226562 507.375 C 420.226562 505.425781 421.800781 503.925781 423.898438 503.925781 C 424.800781 504 425.851562 504.449219 426.601562 505.125 Z M 426.601562 505.125 "/>
<path style=" stroke:none;fill-rule:nonzero;fill:rgb(7.058824%,30.196078%,60%);fill-opacity:1;" d="M 433.949219 509.476562 L 433.949219 510.898438 L 429.300781 510.898438 L 429.300781 504.074219 L 431.023438 504.074219 L 431.023438 509.476562 Z M 433.949219 509.476562 "/>
<path style=" stroke:none;fill-rule:nonzero;fill:rgb(7.058824%,30.196078%,60%);fill-opacity:1;" d="M 443.699219 507.449219 C 443.699219 509.476562 442.125 510.976562 440.023438 510.976562 C 437.925781 510.976562 436.351562 509.476562 436.351562 507.449219 C 436.351562 505.425781 437.925781 504 440.023438 504 C 442.125 504 443.699219 505.5 443.699219 507.449219 Z M 438.074219 507.449219 C 438.074219 508.574219 438.976562 509.476562 440.023438 509.476562 C 441.074219 509.476562 441.898438 508.574219 441.898438 507.449219 C 441.898438 506.324219 441.074219 505.425781 440.023438 505.425781 C 438.976562 505.425781 438.074219 506.324219 438.074219 507.449219 Z M 438.074219 507.449219 "/>
<path style=" stroke:none;fill-rule:nonzero;fill:rgb(7.058824%,30.196078%,60%);fill-opacity:1;" d="M 452.773438 508.050781 C 452.773438 509.851562 451.574219 510.976562 449.625 510.976562 C 447.675781 510.976562 446.476562 509.851562 446.476562 508.050781 L 446.476562 504.074219 L 448.199219 504.074219 L 448.199219 508.050781 C 448.199219 508.949219 448.800781 509.550781 449.625 509.550781 C 450.449219 509.550781 450.976562 508.949219 450.976562 508.050781 L 450.976562 504.074219 L 452.699219 504.074219 L 452.699219 508.050781 Z M 452.773438 508.050781 "/>
<path style=" stroke:none;fill-rule:nonzero;fill:rgb(7.058824%,30.196078%,60%);fill-opacity:1;" d="M 458.925781 504.074219 C 461.101562 504.074219 462.523438 505.5 462.523438 507.523438 C 462.523438 509.550781 461.023438 510.976562 458.851562 510.976562 L 456 510.976562 L 456 504.148438 L 458.925781 504.148438 Z M 457.648438 509.476562 L 458.925781 509.476562 C 459.976562 509.476562 460.726562 508.648438 460.726562 507.449219 C 460.726562 506.25 459.898438 505.425781 458.851562 505.425781 L 457.648438 505.425781 Z M 457.648438 509.476562 "/>
<path style=" stroke:none;fill-rule:nonzero;fill:rgb(7.058824%,30.196078%,60%);fill-opacity:1;" d="M 475.574219 505.125 L 474.601562 506.324219 C 474.148438 505.800781 473.476562 505.425781 472.875 505.425781 C 471.824219 505.425781 471 506.25 471 507.375 C 471 508.5 471.824219 509.398438 472.875 509.398438 C 473.476562 509.398438 474.148438 509.101562 474.601562 508.574219 L 475.648438 509.625 C 474.898438 510.375 473.851562 510.898438 472.800781 510.898438 C 470.773438 510.898438 469.199219 509.398438 469.199219 507.375 C 469.199219 505.425781 470.773438 503.925781 472.875 503.925781 C 473.851562 504 474.898438 504.449219 475.574219 505.125 Z M 475.574219 505.125 "/>
<path style=" stroke:none;fill-rule:nonzero;fill:rgb(7.058824%,30.196078%,60%);fill-opacity:1;" d="M 485.175781 507.449219 C 485.175781 509.476562 483.601562 510.976562 481.5 510.976562 C 479.398438 510.976562 477.824219 509.476562 477.824219 507.449219 C 477.824219 505.425781 479.398438 504 481.5 504 C 483.601562 504 485.175781 505.5 485.175781 507.449219 Z M 479.550781 507.449219 C 479.550781 508.574219 480.449219 509.476562 481.5 509.476562 C 482.550781 509.476562 483.375 508.574219 483.375 507.449219 C 483.375 506.324219 482.550781 505.425781 481.5 505.425781 C 480.449219 505.425781 479.550781 506.324219 479.550781 507.449219 Z M 479.550781 507.449219 "/>
<path style=" stroke:none;fill-rule:nonzero;fill:rgb(7.058824%,30.196078%,60%);fill-opacity:1;" d="M 494.023438 510.898438 L 494.023438 506.476562 L 492.375 510.226562 L 491.25 510.226562 L 489.601562 506.476562 L 489.601562 510.898438 L 488.023438 510.898438 L 488.023438 504.074219 L 489.898438 504.074219 L 491.773438 508.125 L 493.648438 504.074219 L 495.523438 504.074219 L 495.523438 510.898438 Z M 494.023438 510.898438 "/>
<path style=" stroke:none;fill-rule:nonzero;fill:rgb(7.058824%,30.196078%,60%);fill-opacity:1;" d="M 501.898438 504.074219 C 503.625 504.074219 504.675781 504.898438 504.675781 506.476562 C 504.675781 508.050781 503.699219 509.023438 501.898438 509.023438 L 500.625 509.023438 L 500.625 510.976562 L 498.898438 510.976562 L 498.898438 504.148438 L 501.898438 504.148438 Z M 500.625 507.601562 L 501.75 507.601562 C 502.5 507.601562 502.949219 507.226562 502.949219 506.476562 C 502.949219 505.726562 502.5 505.425781 501.75 505.425781 L 500.625 505.425781 Z M 500.625 507.601562 "/>
<path style=" stroke:none;fill-rule:nonzero;fill:rgb(7.058824%,30.196078%,60%);fill-opacity:1;" d="M 513.675781 508.050781 C 513.675781 509.851562 512.476562 510.976562 510.523438 510.976562 C 508.574219 510.976562 507.375 509.851562 507.375 508.050781 L 507.375 504.074219 L 509.101562 504.074219 L 509.101562 508.050781 C 509.101562 508.949219 509.699219 509.550781 510.523438 509.550781 C 511.351562 509.550781 511.875 508.949219 511.875 508.050781 L 511.875 504.074219 L 513.601562 504.074219 L 513.601562 508.050781 Z M 513.675781 508.050781 "/>
<path style=" stroke:none;fill-rule:nonzero;fill:rgb(7.058824%,30.196078%,60%);fill-opacity:1;" d="M 520.050781 505.425781 L 520.050781 510.898438 L 518.324219 510.898438 L 518.324219 505.425781 L 516.300781 505.425781 L 516.300781 504 L 522.148438 504 L 522.148438 505.425781 Z M 520.050781 505.425781 "/>
<path style=" stroke:none;fill-rule:nonzero;fill:rgb(7.058824%,30.196078%,60%);fill-opacity:1;" d="M 524.773438 510.898438 L 524.773438 504.074219 L 526.5 504.074219 L 526.5 510.898438 Z M 524.773438 510.898438 "/>
<path style=" stroke:none;fill-rule:nonzero;fill:rgb(7.058824%,30.196078%,60%);fill-opacity:1;" d="M 534.675781 510.898438 L 531.523438 506.699219 L 531.523438 510.898438 L 529.875 510.898438 L 529.875 504.074219 L 531.375 504.074219 L 534.523438 508.273438 L 534.523438 504.074219 L 536.175781 504.074219 L 536.175781 510.898438 Z M 534.675781 510.898438 "/>
<path style=" stroke:none;fill-rule:nonzero;fill:rgb(7.058824%,30.196078%,60%);fill-opacity:1;" d="M 545.550781 507.449219 L 545.550781 510.148438 C 544.800781 510.675781 543.675781 511.050781 542.699219 511.050781 C 540.601562 511.050781 539.023438 509.550781 539.023438 507.523438 C 539.023438 505.574219 540.675781 504.074219 542.773438 504.074219 C 543.824219 504.074219 544.875 504.449219 545.550781 505.125 L 544.574219 506.324219 C 544.050781 505.875 543.375 505.574219 542.773438 505.574219 C 541.648438 505.574219 540.824219 506.476562 540.824219 507.601562 C 540.824219 508.800781 541.726562 509.625 542.851562 509.625 C 543.226562 509.625 543.675781 509.476562 544.050781 509.324219 L 544.050781 507.523438 L 545.550781 507.523438 Z M 545.550781 507.449219 "/>
<path style=" stroke:none;fill-rule:nonzero;fill:url(#linear0);" d="M 450.375 282.375 C 446.699219 282.375 443.101562 282.75 439.5 283.574219 C 429.898438 257.175781 404.398438 239.023438 375.898438 239.023438 C 347.476562 239.023438 321.976562 257.101562 312.375 283.574219 C 307.800781 282.601562 303.074219 282.226562 298.351562 282.523438 C 271.800781 284.175781 251.023438 306.675781 251.398438 333.226562 C 251.773438 360.601562 274.125 382.800781 301.574219 382.800781 L 326.101562 382.800781 C 337.351562 382.800781 346.5 373.648438 346.5 362.398438 L 346.5 353.324219 C 350.175781 350.925781 352.5 346.5 351.824219 341.699219 C 351.074219 336.375 346.726562 332.101562 341.398438 331.5 C 334.199219 330.675781 328.125 336.300781 328.125 343.351562 C 328.125 349.050781 332.175781 353.851562 337.574219 354.976562 L 337.574219 362.398438 C 337.574219 368.699219 332.476562 373.800781 326.175781 373.800781 L 301.5 373.800781 C 301.125 373.800781 300.675781 373.800781 300.300781 373.800781 L 297.601562 373.800781 L 297.601562 373.648438 C 277.050781 371.699219 260.851562 354.601562 260.324219 333.75 C 259.726562 311.773438 276.824219 292.949219 298.800781 291.523438 C 303.976562 291.226562 309.074219 291.824219 313.949219 293.324219 C 316.351562 294.074219 318.898438 292.726562 319.648438 290.324219 C 326.851562 265.425781 350.023438 248.101562 375.898438 248.101562 C 401.851562 248.101562 424.949219 265.5 432.226562 290.324219 C 432.898438 292.726562 435.523438 294.148438 437.925781 293.324219 C 442.800781 291.75 447.976562 291.148438 453.074219 291.523438 C 474.75 292.949219 491.773438 311.324219 491.550781 333 C 491.398438 353.324219 476.324219 370.199219 456.75 373.273438 L 456.75 373.726562 L 451.425781 373.726562 C 451.050781 373.726562 450.675781 373.726562 450.300781 373.726562 L 425.023438 373.726562 C 418.726562 373.726562 413.625 368.625 413.625 362.324219 L 413.625 354.824219 C 418.949219 353.476562 422.925781 348.601562 422.699219 342.75 C 422.476562 336.675781 417.449219 331.648438 411.375 331.351562 C 404.550781 331.050781 398.851562 336.523438 398.851562 343.273438 C 398.851562 347.625 401.175781 351.375 404.625 353.476562 L 404.625 362.324219 C 404.625 373.574219 413.773438 382.726562 425.023438 382.726562 L 449.550781 382.726562 C 477.074219 382.726562 500.101562 360.824219 500.476562 333.300781 C 501 305.324219 478.273438 282.375 450.375 282.375 Z M 337.050781 343.273438 C 337.050781 341.625 338.324219 340.351562 339.976562 340.351562 C 341.625 340.351562 342.898438 341.625 342.898438 343.273438 C 342.898438 344.925781 341.625 346.199219 339.976562 346.199219 C 338.324219 346.199219 337.050781 344.925781 337.050781 343.273438 Z M 410.851562 346.199219 C 409.199219 346.199219 407.925781 344.925781 407.925781 343.273438 C 407.925781 341.625 409.199219 340.351562 410.851562 340.351562 C 412.5 340.351562 413.773438 341.625 413.773438 343.273438 C 413.773438 344.925781 412.425781 346.199219 410.851562 346.199219 Z M 410.851562 346.199219 "/>
<path style=" stroke:none;fill-rule:nonzero;fill:url(#linear1);" d="M 441.523438 367.726562 C 444 367.726562 446.023438 365.699219 446.023438 363.226562 L 446.023438 310.726562 C 446.023438 308.324219 445.199219 305.925781 443.550781 304.125 C 440.773438 301.125 436.574219 300.226562 432.976562 301.648438 L 390 320.023438 C 388.273438 320.699219 387.148438 322.351562 387.148438 324.226562 C 387.148438 327.375 390.375 329.550781 393.300781 328.425781 L 436.273438 310.125 C 436.351562 310.125 436.5 310.050781 436.726562 310.199219 C 436.949219 310.351562 436.949219 310.574219 436.949219 310.648438 L 436.949219 363.300781 C 437.023438 365.773438 439.050781 367.726562 441.523438 367.726562 Z M 441.523438 367.726562 "/>
<path style=" stroke:none;fill-rule:nonzero;fill:url(#linear2);" d="M 365.476562 324.226562 C 365.476562 322.351562 364.351562 320.699219 362.625 320.023438 L 318.976562 301.726562 C 315.375 300.300781 311.175781 301.199219 308.398438 304.199219 C 306.75 306 305.925781 308.398438 305.925781 310.800781 L 305.925781 364.050781 C 305.925781 366.523438 307.949219 368.550781 310.425781 368.550781 C 312.898438 368.550781 314.925781 366.523438 314.925781 364.050781 L 314.925781 310.648438 C 314.925781 310.574219 314.925781 310.351562 315.148438 310.199219 C 315.226562 310.125 315.375 310.125 315.449219 310.125 C 315.523438 310.125 315.601562 310.125 315.675781 310.199219 L 359.324219 328.5 C 362.25 329.550781 365.476562 327.375 365.476562 324.226562 Z M 365.476562 324.226562 "/>
<path style=" stroke:none;fill-rule:nonzero;fill:url(#linear3);" d="M 441.523438 388.050781 C 439.050781 388.050781 437.023438 390.074219 437.023438 392.550781 L 437.023438 399.976562 C 437.023438 400.199219 436.875 400.425781 436.648438 400.5 L 380.476562 417.824219 L 380.476562 284.699219 C 384.898438 282.898438 388.050781 278.476562 387.898438 273.300781 C 387.75 267.148438 382.726562 262.050781 376.574219 261.75 C 369.75 261.449219 364.050781 266.925781 364.050781 273.675781 C 364.050781 278.625 367.125 282.898438 371.476562 284.699219 L 371.476562 417.898438 L 315.300781 400.5 C 315.074219 400.425781 314.925781 400.199219 314.925781 399.976562 L 314.925781 393.300781 C 314.925781 390.824219 312.898438 388.800781 310.425781 388.800781 C 307.949219 388.800781 305.925781 390.824219 305.925781 393.300781 L 305.925781 399.976562 C 305.925781 404.175781 308.625 407.851562 312.601562 409.050781 L 375.898438 428.625 L 439.199219 409.050781 C 443.25 407.773438 445.949219 404.175781 445.949219 399.976562 L 445.949219 392.550781 C 446.023438 390.074219 444 388.050781 441.523438 388.050781 Z M 375.976562 276.601562 C 374.324219 276.601562 373.050781 275.324219 373.050781 273.675781 C 373.050781 272.023438 374.324219 270.75 375.976562 270.75 C 377.625 270.75 378.898438 272.023438 378.898438 273.675781 C 378.898438 275.324219 377.550781 276.601562 375.976562 276.601562 Z M 375.976562 276.601562 "/>
</g>
</svg>
