<?xml version="1.0" standalone="no"?>
<!DOCTYPE svg PUBLIC "-//W3C//DTD SVG 1.0//EN" "http://www.w3.org/TR/2001/REC-SVG-20010904/DTD/svg10.dtd">
<svg xmlns="http://www.w3.org/2000/svg" xmlns:xlink="http://www.w3.org/1999/xlink" id="body_1" width="512" height="384">

<defs>
    <linearGradient transform="matrix(1 0 0 1 0 0)"  id="1" x1="562.5188" y1="362.2764" x2="436.5188" y2="551.2764">
        <stop stop-color="#83DCFF" offset="0%"/>
        <stop stop-color="#0076F7" offset="100%"/>
    </linearGradient>
    <linearGradient transform="matrix(1 0 0 1 0 0)"  id="240" x1="606.936" y1="391.8878" x2="480.936" y2="580.8879">
        <stop stop-color="#83DCFF" offset="0%"/>
        <stop stop-color="#0076F7" offset="100%"/>
    </linearGradient>
    <linearGradient transform="matrix(1 0 0 1 0 0)"  id="479" x1="515.5645" y1="330.9734" x2="389.5644" y2="519.9734">
        <stop stop-color="#83DCFF" offset="0%"/>
        <stop stop-color="#0076F7" offset="100%"/>
    </linearGradient>
    <linearGradient transform="matrix(1 0 0 1 0 0)"  id="720" x1="591.7798" y1="381.7837" x2="465.7798" y2="570.7837">
        <stop stop-color="#83DCFF" offset="0%"/>
        <stop stop-color="#0076F7" offset="100%"/>
    </linearGradient>
</defs>

<g transform="matrix(0.384 0 0 0.384 64.000015 -0)">
	<g>
		<g>
			<g>
                <path d="M228.3 601L228.3 669.1L216.5 669.1L216.5 601L228.3 601z" stroke="none" fill="#124D99" fill-rule="nonzero" />
                <path d="M248.8 649.3C 249.6 655.2 254.7 659.5 263.1 659.5C 267.5 659.5 273.2 657.8 276 655L276 655L283.6 662.5C 278.5 667.8 270.30002 670.3 263 670.3C 246.4 670.3 236.6 660.1 236.6 644.7C 236.6 630.10004 246.5 619.60004 262.1 619.60004C 278.2 619.60004 288.2 629.50006 286.4 649.30005L286.4 649.30005L248.8 649.30005L248.8 649.3zM274.9 639.5C 274.1 633.3 269.3 630.1 262.4 630.1C 256 630.1 250.7 633.19995 249 639.5L249 639.5L274.9 639.5z" stroke="none" fill="#124D99" fill-rule="nonzero" />
                <path d="M333.5 621L344.9 621L344.9 669L333.69998 669L333.09998 662C 330.39996 667.6 322.89996 670.4 317.49997 670.5C 303.29996 670.6 292.79996 661.8 292.79996 645C 292.79996 628.4 303.79996 619.8 317.79996 619.9C 324.19995 619.9 330.39996 622.9 333.09995 627.7L333.09995 627.7L333.5 621zM304.7 645C 304.7 654.2 311 659.6 318.90002 659.6C 337.60004 659.6 337.60004 630.5 318.90002 630.5C 311 630.5 304.7 635.9 304.7 645z" stroke="none" fill="#124D99" fill-rule="nonzero" />
                <path d="M366 621L366.9 626.6C 370.6 620.69995 375.6 619.8 380.4 619.8C 385.4 619.8 390.1 621.7 392.8 624.39996L392.8 624.39996L387.4 634.69995C 385 632.69995 382.69998 631.6 378.8 631.6C 372.59998 631.6 366.8 634.89996 366.8 643.8L366.8 643.8L366.8 669.1L355 669.1L355 621.1L366 621.1L366 621z" stroke="none" fill="#124D99" fill-rule="nonzero" />
                <path d="M432.6 669.1L432.6 644C 432.6 636.7 428.6 631.1 421 631.1C 413.7 631.1 408.7 637.19995 408.7 644.5L408.7 644.5L408.7 669L397 669L397 620.9L407.6 620.9L408.4 627.4C 413.3 622.60004 418.1 620.2 424.19998 620.2C 435.49997 620.2 444.59998 628.7 444.59998 643.8L444.59998 643.8L444.59998 669L432.6 669L432.6 669.1z" stroke="none" fill="#124D99" fill-rule="nonzero" />
                <path d="M467.2 606.4L467.2 620.9L483.6 620.9L483.6 624.9L467.2 624.9L467.2 654.2C 467.2 660.7 468.6 665.3 476.1 665.3C 478.4 665.3 481.1 664.5 483.5 663.39996L483.5 663.39996L485.2 667.3C 482.2 668.8 479.2 669.7 476.1 669.7C 465.9 669.7 462.6 663.7 462.6 654.2L462.6 654.2L462.6 624.9L452.4 624.9L452.4 620.9L462.6 620.9L462.6 606.9L467.2 606.4z" stroke="none" fill="#124D99" fill-rule="nonzero" />
                <path d="M492.3 645.1C 492.3 629.8 503.19998 620.1 516.7 620.1C 530.2001 620.1 541.10004 629.8 541.10004 645.1C 541.10004 660.39996 530.2 669.69995 516.7 669.69995C 503.2 669.69995 492.3 660.4 492.3 645.1zM536.5 645.1C 536.5 632.6 527.6 624.5 516.7 624.5C 505.80002 624.5 496.90002 632.6 496.90002 645.1C 496.90002 657.6 505.80002 665.1 516.7 665.1C 527.7 665.1 536.5 657.6 536.5 645.1z" stroke="none" fill="#124D99" fill-rule="nonzero" />
                <path d="M591.9 662.9C 586.30005 668.4 580.5 670.5 573.4 670.5C 559.5 670.5 547.9 662.1 547.9 645.1C 547.9 628.1 559.5 619.69995 573.4 619.69995C 580.2 619.69995 585.5 621.6 590.7 626.7999L590.7 626.7999L583.2 634.69995C 580.4 632.19995 576.9 630.89996 573.60004 630.89996C 565.60004 630.89996 559.80005 636.69995 559.80005 645.1C 559.80005 654.3 566.00006 659.1 573.4 659.1C 577.2 659.1 581 658 583.9 655.1L583.9 655.1L591.9 662.9z" stroke="none" fill="#124D99" fill-rule="nonzero" />
                <path d="M609 601L609 669.1L597.2 669.1L597.2 601L609 601z" stroke="none" fill="#124D99" fill-rule="nonzero" />
                <path d="M667.1 645.1C 667.1 658.89996 657.69995 670.1 642.1 670.1C 626.5 670.1 617.19995 658.89996 617.19995 645.1C 617.19995 631.39996 626.69995 620.1 641.99994 620.1C 657.3 620.1 667.1 631.4 667.1 645.1zM629.1 645.1C 629.1 652.39996 633.5 659.19995 642.19995 659.19995C 650.8999 659.19995 655.2999 652.39996 655.2999 645.1C 655.2999 637.89996 650.19995 630.89996 642.19995 630.89996C 633.5 630.9 629.1 637.9 629.1 645.1z" stroke="none" fill="#124D99" fill-rule="nonzero" />
                <path d="M687.5 621L687.5 646.1C 687.5 653.39996 691.5 659 699.1 659C 706.39996 659 711.39996 652.9 711.39996 645.6L711.39996 645.6L711.39996 621L723.19995 621L723.19995 669.1L712.6 669.1L711.8 662.6C 706.8 667.5 702.3 669.8 695.5 669.8C 684 669.8 675.6 661.1 675.6 646.2L675.6 646.2L675.6 621L687.5 621z" stroke="none" fill="#124D99" fill-rule="nonzero" />
                <path d="M783.5 601L783.5 669.1L772.4 669.1L771.60004 662.5C 767.9 668.2 762.00006 670.2 756.10004 670.2C 742.00006 670.2 731.4 660.8 731.4 645.10004C 731.4 628.50006 741.80005 620.00006 755.80005 620.00006C 760.9 620.00006 768.80005 622.7001 771.60004 627.7001L771.60004 627.7001L771.60004 601L783.5 601zM743.3 645C 743.3 653.4 749.3 659.1 756.89996 659.1C 764.39996 659.1 770.8 653.6 770.8 645C 770.8 636.6 764.39996 631 756.89996 631C 749.3 631 743.3 636.3 743.3 645z" stroke="none" fill="#124D99" fill-rule="nonzero" />
			</g>
			<g>
                <path d="M600.5 387.3C 595.6 387.3 590.8 387.8 586 388.9C 573.2 353.69998 539.2 329.5 501.2 329.5C 463.30002 329.5 429.30002 353.6 416.5 388.9C 410.4 387.6 404.1 387.1 397.8 387.5C 362.4 389.7 334.69998 419.7 335.19998 455.1C 335.69998 491.6 365.49997 521.2 402.09998 521.2L402.09998 521.2L407.89996 521.2L419.89996 521.2L434.79996 521.2C 449.79996 521.2 461.99997 509 461.99997 494L461.99997 494L461.99997 481.9C 466.89996 478.69998 469.99997 472.8 469.09998 466.4C 468.09998 459.3 462.3 453.6 455.19998 452.8C 445.59998 451.69998 437.49997 459.19998 437.49997 468.59998C 437.49997 476.19998 442.89996 482.59998 450.09998 484.09998L450.09998 484.09998L450.09998 493.99997C 450.09998 502.39996 443.3 509.19998 434.89996 509.19998L434.89996 509.19998L419.99997 509.19998L407.99997 509.19998L402 509.19998C 401.5 509.19998 400.9 509.19998 400.4 509.19998L400.4 509.19998L396.8 509.19998L396.8 508.99997C 369.4 506.39996 347.8 483.59998 347.09998 455.79996C 346.3 426.49997 369.09998 401.39996 398.39996 399.49997C 405.29996 399.09998 412.09998 399.89996 418.59998 401.89996C 421.8 402.89996 425.19998 401.09998 426.19998 397.89996C 435.8 364.69995 466.69998 341.59998 501.19998 341.59998C 535.8 341.59998 566.6 364.8 576.3 397.89996C 577.2 401.09998 580.7 402.99997 583.89996 401.89996C 590.39996 399.79996 597.3 398.99997 604.1 399.49997C 633 401.39996 655.69995 425.89996 655.39996 454.79996C 655.19995 481.89996 635.1 504.39996 608.99994 508.49997L608.99994 508.49997L608.99994 509.09998L601.89996 509.09998C 601.39996 509.09998 600.89996 509.09998 600.39996 509.09998L600.39996 509.09998L594.6 509.09998L582.6 509.09998L566.69995 509.09998C 558.2999 509.09998 551.49994 502.3 551.49994 493.89996L551.49994 493.89996L551.49994 483.89996C 558.5999 482.09998 563.89996 475.59998 563.5999 467.79996C 563.2999 459.69995 556.5999 452.99997 548.49994 452.59995C 539.39996 452.19995 531.7999 459.49994 531.7999 468.49994C 531.7999 474.29993 534.8999 479.29993 539.49994 482.09995L539.49994 482.09995L539.49994 493.89993C 539.49994 508.89993 551.69995 521.0999 566.69995 521.0999L566.69995 521.0999L582.6 521.0999L594.6 521.0999L599.39996 521.0999C 636.1 521.0999 666.8 491.8999 667.3 455.19992C 668 417.9 637.7 387.3 600.5 387.3zM449.4 468.5C 449.4 466.3 451.1 464.6 453.3 464.6C 455.49997 464.6 457.19998 466.30002 457.19998 468.5C 457.19998 470.69998 455.49997 472.4 453.3 472.4C 451.1 472.4 449.4 470.7 449.4 468.5zM547.8 472.4C 545.6 472.4 543.89996 470.69998 543.89996 468.5C 543.89996 466.30002 545.6 464.6 547.8 464.6C 550 464.6 551.7 466.30002 551.7 468.5C 551.7 470.69998 549.9 472.4 547.8 472.4z" stroke="none" fill="url(#1)" />
                <path d="M588.7 501.1C 592 501.1 594.7 498.4 594.7 495.1L594.7 495.1L594.7 425.1C 594.7 421.9 593.60004 418.7 591.4 416.30002C 587.7 412.30002 582.10004 411.1 577.30005 413.00003L577.30005 413.00003L520 437.5C 517.7 438.4 516.2 440.6 516.2 443.1C 516.2 447.30002 520.5 450.2 524.4 448.7L524.4 448.7L581.7 424.30002C 581.8 424.30002 582 424.2 582.3 424.40002C 582.6 424.60004 582.6 424.90002 582.6 425.00003L582.6 425.00003L582.6 495.2C 582.7 498.4 585.4 501.1 588.7 501.1z" stroke="none" fill="url(#240)" />
                <path d="M487.3 443.1C 487.3 440.6 485.8 438.4 483.5 437.5L483.5 437.5L425.3 413.1C 420.5 411.2 414.9 412.4 411.19998 416.4C 408.99997 418.8 407.9 422 407.9 425.19998L407.9 425.19998L407.9 496.19998C 407.9 499.49997 410.6 502.19998 413.9 502.19998C 417.19998 502.19998 419.9 499.49997 419.9 496.19998L419.9 496.19998L419.9 425C 419.9 424.9 419.9 424.6 420.19998 424.4C 420.3 424.3 420.49997 424.3 420.59998 424.3C 420.69998 424.3 420.8 424.3 420.89996 424.4L420.89996 424.4L479.09998 448.8C 483 450.2 487.3 447.3 487.3 443.1z" stroke="none" fill="url(#479)" />
                <path d="M588.7 528.2C 585.4 528.2 582.7 530.9 582.7 534.2L582.7 534.2L582.7 544.10004C 582.7 544.4 582.5 544.7 582.2 544.80005L582.2 544.80005L507.30002 567.9L507.30002 466L507.30002 453.6L507.30002 440.7L507.30002 425.2L507.30002 390.30002C 513.2 387.90002 517.4 382.00003 517.2 375.1C 517 366.9 510.30002 360.1 502.1 359.7C 493 359.30002 485.4 366.6 485.4 375.6C 485.4 382.2 489.5 387.9 495.3 390.30002L495.3 390.30002L495.3 423.00003L495.3 440.70004L495.3 453.60004L495.3 463.80005L495.3 567.9L420.4 544.80005C 420.1 544.7001 419.9 544.4 419.9 544.10004L419.9 544.10004L419.9 535.2C 419.9 531.9 417.19998 529.2 413.9 529.2C 410.6 529.2 407.9 531.9 407.9 535.2L407.9 535.2L407.9 544.10004C 407.9 549.7 411.5 554.60004 416.8 556.2L416.8 556.2L501.19998 582.3L585.6 556.2C 591 554.5 594.6 549.7 594.6 544.10004L594.6 544.10004L594.6 534.2C 594.7 530.9 592 528.2 588.7 528.2zM501.3 379.6C 499.09998 379.6 497.4 377.9 497.4 375.7C 497.4 373.50003 499.1 371.80002 501.3 371.80002C 503.5 371.80002 505.19998 373.50003 505.19998 375.7C 505.19998 377.9 503.4 379.6 501.3 379.6z" stroke="none" fill="url(#720)" />
			</g>
		</g>
	</g>
</g>
</svg>