<svg xmlns="http://www.w3.org/2000/svg" xmlns:xlink="http://www.w3.org/1999/xlink" width="425.25" height="272.027" viewBox="0 0 425.25 272.027"><defs><linearGradient id="a" x1="1.249" y1="0.782" x2="0.743" y2="2.097" gradientUnits="objectBoundingBox"><stop offset="0" stop-color="#83dcff"/><stop offset="1" stop-color="#0076f7"/></linearGradient><linearGradient id="b" x1="3.733" y1="1.201" x2="1.593" y2="4.033" xlink:href="#a"/><linearGradient id="c" x1="3.52" y1="0.284" x2="1.404" y2="3.084" xlink:href="#a"/><linearGradient id="d" x1="2.041" y1="0.655" x2="1.142" y2="1.787" xlink:href="#a"/></defs><g transform="translate(-162.375 -239.023)"><path d="M171.227,442.648v51.078h-8.852V442.648Zm0,0" fill="#124d99"/><path d="M186.6,478.875c.6,4.426,4.422,7.648,10.723,7.648,3.3,0,7.574-1.273,9.676-3.375l5.7,5.625c-3.824,3.977-9.973,5.852-15.449,5.852-12.449,0-19.8-7.648-19.8-19.2,0-10.949,7.426-18.824,19.125-18.824,12.074,0,19.574,7.422,18.227,22.273Zm19.574-7.352c-.6-4.648-4.2-7.047-9.375-7.047-4.8,0-8.777,2.324-10.051,7.047Zm0,0" fill="#124d99"/><path d="M250.125,457.727h8.551v36h-8.4l-.449-5.25c-2.023,4.2-7.648,6.3-11.7,6.375-10.648.074-18.523-6.527-18.523-19.125,0-12.453,8.25-18.9,18.75-18.828,4.8,0,9.449,2.25,11.473,5.852Zm-21.6,17.922c0,6.9,4.727,10.953,10.652,10.953,14.023,0,14.023-21.828,0-21.828C233.25,464.773,228.523,468.824,228.523,475.648Zm0,0" fill="#124d99"/><path d="M274.5,457.727l.676,4.2c2.773-4.426,6.523-5.1,10.125-5.1a13.55,13.55,0,0,1,9.3,3.449L290.551,468a9.052,9.052,0,0,0-6.449-2.324c-4.652,0-9,2.473-9,9.148V493.8H266.25v-36h8.25Zm0,0" fill="#124d99"/><path d="M324.449,493.727V474.9c0-5.473-3-9.672-8.7-9.672-5.477,0-9.227,4.574-9.227,10.047v18.375H297.75V457.574H305.7l.6,4.875c3.676-3.6,7.273-5.4,11.848-5.4,8.477,0,15.3,6.375,15.3,17.7v18.9h-9Zm0,0" fill="#124d99"/><path d="M350.4,446.773v10.875h12.3v3H350.4v21.977c0,4.875,1.051,8.324,6.676,8.324a14.1,14.1,0,0,0,5.551-1.426l1.273,2.926a15.2,15.2,0,0,1-6.824,1.8c-7.648,0-10.125-4.5-10.125-11.625V460.648H339.3v-3h7.648v-10.5Zm0,0" fill="#124d99"/><path d="M369.227,475.727c0-11.477,8.172-18.75,18.3-18.75s18.3,7.273,18.3,18.75-8.176,18.449-18.3,18.449S369.227,487.2,369.227,475.727Zm33.148,0c0-9.375-6.676-15.453-14.852-15.453s-14.848,6.078-14.848,15.453,6.676,15,14.848,15C395.773,490.727,402.375,485.1,402.375,475.727Zm0,0" fill="#124d99"/><path d="M443.926,489.148a18.464,18.464,0,0,1-13.875,5.7c-10.426,0-19.125-6.3-19.125-19.051s8.7-19.051,19.125-19.051a16.893,16.893,0,0,1,12.973,5.324L437.4,468a10.958,10.958,0,0,0-7.2-2.852c-6,0-10.348,4.352-10.348,10.652,0,6.9,4.648,10.5,10.2,10.5a10.841,10.841,0,0,0,7.875-3Zm0,0" fill="#124d99"/><path d="M456.75,442.648v51.078H447.9V442.648Zm0,0" fill="#124d99"/><path d="M500.324,475.727c0,10.348-7.051,18.75-18.75,18.75s-18.676-8.4-18.676-18.75c0-10.277,7.125-18.75,18.6-18.75S500.324,465.449,500.324,475.727Zm-28.5,0c0,5.473,3.3,10.574,9.824,10.574s9.828-5.1,9.828-10.574c0-5.4-3.828-10.652-9.828-10.652C475.125,465.074,471.824,470.324,471.824,475.727Zm0,0" fill="#124d99"/><path d="M515.625,457.727v18.824c0,5.473,3,9.676,8.7,9.676,5.477,0,9.227-4.578,9.227-10.051V457.8H542.4v36.074h-7.949l-.6-4.875c-3.75,3.676-7.125,5.4-12.227,5.4-8.625,0-14.926-6.523-14.926-17.7V457.8h8.926Zm0,0" fill="#124d99"/><path d="M587.625,442.648v51.078H579.3l-.6-4.953c-2.773,4.277-7.2,5.777-11.625,5.777-10.574,0-18.523-7.051-18.523-18.824,0-12.453,7.8-18.828,18.3-18.828,3.824,0,9.75,2.027,11.848,5.777V442.727h8.926Zm-30.148,33c0,6.3,4.5,10.578,10.2,10.578a10.54,10.54,0,0,0,0-21.078C561.977,465.148,557.477,469.2,557.477,475.648Zm0,0" fill="#124d99"/><path d="M213.375,509.477V510.9h-4.648v-6.824h1.723v5.4Zm0,0" fill="#124d99"/><path d="M217.949,505.426v1.348h3.3v1.352h-3.3v1.352h3.75v1.348h-5.473V504h5.324v1.352h-3.6Zm0,0" fill="#124d99"/><path d="M226.273,509.625l-.523,1.273h-1.8l2.926-6.824h1.8l2.848,6.824h-1.875l-.523-1.273Zm1.5-3.824-.973,2.551h1.949Zm0,0" fill="#124d99"/><path d="M237.3,508.949h-1.352V510.9h-1.723v-6.824H237.3c1.8,0,2.848.824,2.848,2.4a2.2,2.2,0,0,1-1.273,2.172l1.426,2.25h-1.949Zm0-1.348a1.049,1.049,0,0,0,1.2-1.125c0-.75-.449-1.051-1.2-1.051h-1.352V507.6Zm0,0" fill="#124d99"/><path d="M248.023,510.9l-3.148-4.2v4.2h-1.648v-6.824h1.5l3.148,4.2v-4.2h1.648V510.9Zm0,0" fill="#124d99"/><path d="M260.324,505.426V510.9H258.6v-5.473h-2.1V504h5.852v1.426Zm0,0" fill="#124d99"/><path d="M269.625,510.9v-2.625h-2.852V510.9h-1.723v-6.824h1.723v2.852h2.852v-2.852h1.727V510.9Zm0,0" fill="#124d99"/><path d="M276.449,505.426v1.348h3.3v1.352h-3.3v1.352h3.75v1.348h-5.473V504h5.324v1.352h-3.6Zm0,0" fill="#124d99"/><path d="M289.2,505.426V507h3.074v1.352H289.2V510.9h-1.723v-6.824h5.1v1.352Zm0,0" fill="#124d99"/><path d="M301.5,508.051a3.159,3.159,0,0,1-6.3,0v-3.977h1.727v3.977a1.4,1.4,0,0,0,1.426,1.5,1.343,1.343,0,0,0,1.348-1.5v-3.977h1.727v3.977Zm0,0" fill="#124d99"/><path d="M309.449,510.9l-3.148-4.2v4.2h-1.652v-6.824h1.5l3.152,4.2v-4.2h1.648V510.9Zm0,0" fill="#124d99"/><path d="M317.25,504.074a3.349,3.349,0,0,1,3.6,3.449,3.412,3.412,0,0,1-3.676,3.453h-2.852v-6.828h2.926Zm-1.2,5.4h1.273a1.843,1.843,0,0,0,1.8-2.027,1.9,1.9,0,0,0-1.875-2.023h-1.2Zm0,0" fill="#124d99"/><path d="M325.125,509.625,324.6,510.9h-1.8l2.926-6.824h1.8l2.852,6.824H328.5l-.523-1.273Zm1.5-3.824-.977,2.551H327.6Zm0,0" fill="#124d99"/><path d="M339.074,510.9v-4.422l-1.648,3.75H336.3l-1.652-3.75V510.9h-1.574v-6.824h1.875l1.875,4.051,1.875-4.051h1.875V510.9Zm0,0" fill="#124d99"/><path d="M345.676,505.426v1.348h3.3v1.352h-3.3v1.352h3.75v1.348h-5.477V504h5.324v1.352h-3.6Zm0,0" fill="#124d99"/><path d="M357.227,510.9l-3.152-4.2v4.2H352.5v-6.824H354l3.148,4.2v-4.2H358.8V510.9Zm0,0" fill="#124d99"/><path d="M365.25,505.426V510.9h-1.727v-5.473H361.5V504h5.852v1.426Zm0,0" fill="#124d99"/><path d="M370.875,509.625l-.523,1.273h-1.8l2.926-6.824h1.8l2.852,6.824H374.25l-.523-1.273Zm1.5-3.824-.977,2.551h1.953Zm0,0" fill="#124d99"/><path d="M383.4,509.477V510.9H378.75v-6.824h1.727v5.4Zm0,0" fill="#124d99"/><path d="M391.574,504.75,390.9,506.1a4.965,4.965,0,0,0-2.172-.75c-.453,0-.75.148-.75.523,0,1.2,3.6.523,3.6,3,0,1.352-1.2,2.1-2.7,2.1a5.214,5.214,0,0,1-3.148-1.125l.672-1.352a4.241,4.241,0,0,0,2.477,1.051c.523,0,.9-.227.9-.6,0-1.2-3.6-.523-3.6-2.926,0-1.273,1.051-2.023,2.7-2.023A5.39,5.39,0,0,1,391.574,504.75Zm0,0" fill="#124d99"/><path d="M405.676,507.449a3.679,3.679,0,0,1-7.352,0A3.452,3.452,0,0,1,402,504,3.544,3.544,0,0,1,405.676,507.449Zm-5.625,0A2,2,0,0,0,402,509.477a2.031,2.031,0,0,0,0-4.051A2,2,0,0,0,400.051,507.449Zm0,0" fill="#124d99"/><path d="M410.25,505.426V507h3.074v1.352H410.25V510.9h-1.727v-6.824h5.1v1.352Zm0,0" fill="#124d99"/><path d="M426.6,505.125l-.977,1.2a2.458,2.458,0,0,0-1.727-.9,1.876,1.876,0,0,0-1.875,1.949A1.941,1.941,0,0,0,423.9,509.4a2.352,2.352,0,0,0,1.727-.824l1.051,1.051a4.177,4.177,0,0,1-2.852,1.273,3.447,3.447,0,0,1-3.6-3.523,3.5,3.5,0,0,1,3.672-3.449A4.877,4.877,0,0,1,426.6,505.125Zm0,0" fill="#124d99"/><path d="M433.949,509.477V510.9H429.3v-6.824h1.723v5.4Zm0,0" fill="#124d99"/><path d="M443.7,507.449a3.677,3.677,0,0,1-7.348,0A3.451,3.451,0,0,1,440.023,504,3.5,3.5,0,0,1,443.7,507.449Zm-5.625,0a2.005,2.005,0,0,0,1.949,2.027,2.031,2.031,0,0,0,0-4.051A2,2,0,0,0,438.074,507.449Zm0,0" fill="#124d99"/><path d="M452.773,508.051a3.157,3.157,0,0,1-6.3,0v-3.977H448.2v3.977a1.4,1.4,0,0,0,1.426,1.5,1.346,1.346,0,0,0,1.352-1.5v-3.977H452.7v3.977Zm0,0" fill="#124d99"/><path d="M458.926,504.074a3.346,3.346,0,0,1,3.6,3.449,3.411,3.411,0,0,1-3.672,3.453H456v-6.828h2.926Zm-1.277,5.4h1.277a1.843,1.843,0,0,0,1.8-2.027,1.9,1.9,0,0,0-1.875-2.023h-1.2Zm0,0" fill="#124d99"/><path d="M475.574,505.125l-.973,1.2a2.466,2.466,0,0,0-1.727-.9A1.874,1.874,0,0,0,471,507.375a1.939,1.939,0,0,0,1.875,2.023,2.359,2.359,0,0,0,1.727-.824l1.047,1.051A4.168,4.168,0,0,1,472.8,510.9a3.49,3.49,0,1,1,.074-6.973A4.454,4.454,0,0,1,475.574,505.125Zm0,0" fill="#124d99"/><path d="M485.176,507.449a3.679,3.679,0,0,1-7.352,0A3.452,3.452,0,0,1,481.5,504,3.5,3.5,0,0,1,485.176,507.449Zm-5.625,0a2,2,0,0,0,1.949,2.027,2.031,2.031,0,0,0,0-4.051A2,2,0,0,0,479.551,507.449Zm0,0" fill="#124d99"/><path d="M494.023,510.9v-4.422l-1.648,3.75H491.25l-1.648-3.75V510.9h-1.578v-6.824H489.9l1.875,4.051,1.875-4.051h1.875V510.9Zm0,0" fill="#124d99"/><path d="M501.9,504.074c1.727,0,2.777.824,2.777,2.4s-.977,2.547-2.777,2.547h-1.273v1.953H498.9v-6.828h3Zm-1.273,3.527h1.125a1.049,1.049,0,0,0,1.2-1.125c0-.75-.449-1.051-1.2-1.051h-1.125Zm0,0" fill="#124d99"/><path d="M513.676,508.051a3.159,3.159,0,0,1-6.3,0v-3.977H509.1v3.977a1.4,1.4,0,0,0,1.422,1.5,1.344,1.344,0,0,0,1.352-1.5v-3.977H513.6v3.977Zm0,0" fill="#124d99"/><path d="M520.051,505.426V510.9h-1.727v-5.473H516.3V504h5.848v1.426Zm0,0" fill="#124d99"/><path d="M524.773,510.9v-6.824H526.5V510.9Zm0,0" fill="#124d99"/><path d="M534.676,510.9l-3.152-4.2v4.2h-1.648v-6.824h1.5l3.148,4.2v-4.2h1.652V510.9Zm0,0" fill="#124d99"/><path d="M545.551,507.449v2.7a5.327,5.327,0,0,1-2.852.9,3.514,3.514,0,0,1-3.676-3.527,3.564,3.564,0,0,1,3.75-3.449,3.984,3.984,0,0,1,2.777,1.051l-.977,1.2a2.932,2.932,0,0,0-1.8-.75,2.026,2.026,0,0,0,.078,4.051,3.474,3.474,0,0,0,1.2-.3v-1.8h1.5Zm0,0" fill="#124d99"/><path d="M450.375,282.375a48.381,48.381,0,0,0-10.875,1.2,67.619,67.619,0,0,0-127.125,0,51.857,51.857,0,0,0-14.023-1.051A50.191,50.191,0,0,0,301.574,382.8H326.1a20.422,20.422,0,0,0,20.4-20.4v-9.074a11.908,11.908,0,1,0-8.926,1.652V362.4a11.4,11.4,0,0,1-11.4,11.4H297.6v-.152a41.2,41.2,0,0,1,1.2-82.125,42.967,42.967,0,0,1,15.148,1.8,4.552,4.552,0,0,0,5.7-3,58.632,58.632,0,0,1,112.578,0,4.463,4.463,0,0,0,5.7,3,39.908,39.908,0,0,1,15.148-1.8,41.166,41.166,0,0,1,3.676,81.75v.453H425.023a11.4,11.4,0,0,1-11.4-11.4v-7.5a11.9,11.9,0,1,0-9-1.348v8.848a20.422,20.422,0,0,0,20.4,20.4h24.527c27.523,0,50.551-21.9,50.926-49.426A50.135,50.135,0,0,0,450.375,282.375Zm-113.324,60.9a2.924,2.924,0,1,1,2.926,2.926A2.879,2.879,0,0,1,337.051,343.273Zm73.8,2.926a2.924,2.924,0,1,1,2.922-2.926A2.926,2.926,0,0,1,410.852,346.2Zm0,0" fill="url(#a)"/><path d="M441.523,367.727a4.514,4.514,0,0,0,4.5-4.5v-52.5a9.769,9.769,0,0,0-2.473-6.6,9.592,9.592,0,0,0-10.574-2.477L390,320.023a4.485,4.485,0,0,0-2.852,4.2,4.542,4.542,0,0,0,6.152,4.2l42.973-18.3a.556.556,0,0,1,.453.074.511.511,0,0,1,.223.449V363.3A4.566,4.566,0,0,0,441.523,367.727Zm0,0" fill="url(#b)"/><path d="M365.477,324.227a4.485,4.485,0,0,0-2.852-4.2l-43.648-18.3A9.589,9.589,0,0,0,308.4,304.2a9.769,9.769,0,0,0-2.473,6.6v53.25a4.5,4.5,0,0,0,9,0v-53.4a.511.511,0,0,1,.223-.449.462.462,0,0,1,.3-.074.281.281,0,0,1,.227.074l43.648,18.3A4.614,4.614,0,0,0,365.477,324.227Zm0,0" fill="url(#c)"/><path d="M441.523,388.051a4.514,4.514,0,0,0-4.5,4.5v7.426a.561.561,0,0,1-.375.523l-56.172,17.324V284.7a11.926,11.926,0,1,0-9,0V417.9L315.3,400.5a.561.561,0,0,1-.375-.523V393.3a4.5,4.5,0,0,0-9,0v6.676a9.427,9.427,0,0,0,6.676,9.074l63.3,19.574,63.3-19.574a9.473,9.473,0,0,0,6.75-9.074v-7.426A4.4,4.4,0,0,0,441.523,388.051ZM375.977,276.6a2.926,2.926,0,1,1,2.922-2.926A2.928,2.928,0,0,1,375.977,276.6Zm0,0" fill="url(#d)"/></g></svg>