<svg xmlns="http://www.w3.org/2000/svg" xmlns:xlink="http://www.w3.org/1999/xlink" width="425.25" height="255.829" viewBox="0 0 425.25 255.829"><defs><linearGradient id="a" x1="1.249" y1="0.782" x2="0.743" y2="2.097" gradientUnits="objectBoundingBox"><stop offset="0" stop-color="#83dcff"/><stop offset="1" stop-color="#0076f7"/></linearGradient><linearGradient id="b" x1="3.733" y1="1.201" x2="1.593" y2="4.033" xlink:href="#a"/><linearGradient id="c" x1="3.52" y1="0.284" x2="1.404" y2="3.084" xlink:href="#a"/><linearGradient id="d" x1="2.041" y1="0.655" x2="1.142" y2="1.787" xlink:href="#a"/></defs><g transform="translate(-162.375 -239.023)"><path d="M171.227,442.648v51.078h-8.852V442.648Zm0,0" fill="#124d99"/><path d="M186.6,478.875c.6,4.426,4.422,7.648,10.723,7.648,3.3,0,7.574-1.273,9.676-3.375l5.7,5.625c-3.824,3.977-9.973,5.852-15.449,5.852-12.449,0-19.8-7.648-19.8-19.2,0-10.949,7.426-18.824,19.125-18.824,12.074,0,19.574,7.422,18.227,22.273Zm19.574-7.352c-.6-4.648-4.2-7.047-9.375-7.047-4.8,0-8.777,2.324-10.051,7.047Zm0,0" fill="#124d99"/><path d="M250.125,457.727h8.551v36h-8.4l-.449-5.25c-2.023,4.2-7.648,6.3-11.7,6.375-10.648.074-18.523-6.527-18.523-19.125,0-12.453,8.25-18.9,18.75-18.828,4.8,0,9.449,2.25,11.473,5.852Zm-21.6,17.922c0,6.9,4.727,10.953,10.652,10.953,14.023,0,14.023-21.828,0-21.828C233.25,464.773,228.523,468.824,228.523,475.648Zm0,0" fill="#124d99"/><path d="M274.5,457.727l.676,4.2c2.773-4.426,6.523-5.1,10.125-5.1a13.55,13.55,0,0,1,9.3,3.449L290.551,468a9.052,9.052,0,0,0-6.449-2.324c-4.652,0-9,2.473-9,9.148V493.8H266.25v-36h8.25Zm0,0" fill="#124d99"/><path d="M324.449,493.727V474.9c0-5.473-3-9.672-8.7-9.672-5.477,0-9.227,4.574-9.227,10.047v18.375H297.75V457.574H305.7l.6,4.875c3.676-3.6,7.273-5.4,11.848-5.4,8.477,0,15.3,6.375,15.3,17.7v18.9h-9Zm0,0" fill="#124d99"/><path d="M350.4,446.773v10.875h12.3v3H350.4v21.977c0,4.875,1.051,8.324,6.676,8.324a14.1,14.1,0,0,0,5.551-1.426l1.273,2.926a15.2,15.2,0,0,1-6.824,1.8c-7.648,0-10.125-4.5-10.125-11.625V460.648H339.3v-3h7.648v-10.5Zm0,0" fill="#124d99"/><path d="M369.227,475.727c0-11.477,8.172-18.75,18.3-18.75s18.3,7.273,18.3,18.75-8.176,18.449-18.3,18.449S369.227,487.2,369.227,475.727Zm33.148,0c0-9.375-6.676-15.453-14.852-15.453s-14.848,6.078-14.848,15.453,6.676,15,14.848,15C395.773,490.727,402.375,485.1,402.375,475.727Zm0,0" fill="#124d99"/><path d="M443.926,489.148a18.464,18.464,0,0,1-13.875,5.7c-10.426,0-19.125-6.3-19.125-19.051s8.7-19.051,19.125-19.051a16.893,16.893,0,0,1,12.973,5.324L437.4,468a10.958,10.958,0,0,0-7.2-2.852c-6,0-10.348,4.352-10.348,10.652,0,6.9,4.648,10.5,10.2,10.5a10.841,10.841,0,0,0,7.875-3Zm0,0" fill="#124d99"/><path d="M456.75,442.648v51.078H447.9V442.648Zm0,0" fill="#124d99"/><path d="M500.324,475.727c0,10.348-7.051,18.75-18.75,18.75s-18.676-8.4-18.676-18.75c0-10.277,7.125-18.75,18.6-18.75S500.324,465.449,500.324,475.727Zm-28.5,0c0,5.473,3.3,10.574,9.824,10.574s9.828-5.1,9.828-10.574c0-5.4-3.828-10.652-9.828-10.652C475.125,465.074,471.824,470.324,471.824,475.727Zm0,0" fill="#124d99"/><path d="M515.625,457.727v18.824c0,5.473,3,9.676,8.7,9.676,5.477,0,9.227-4.578,9.227-10.051V457.8H542.4v36.074h-7.949l-.6-4.875c-3.75,3.676-7.125,5.4-12.227,5.4-8.625,0-14.926-6.523-14.926-17.7V457.8h8.926Zm0,0" fill="#124d99"/><path d="M587.625,442.648v51.078H579.3l-.6-4.953c-2.773,4.277-7.2,5.777-11.625,5.777-10.574,0-18.523-7.051-18.523-18.824,0-12.453,7.8-18.828,18.3-18.828,3.824,0,9.75,2.027,11.848,5.777V442.727h8.926Zm-30.148,33c0,6.3,4.5,10.578,10.2,10.578a10.54,10.54,0,0,0,0-21.078C561.977,465.148,557.477,469.2,557.477,475.648Zm0,0" fill="#124d99"/><path d="M450.375,282.375a48.381,48.381,0,0,0-10.875,1.2,67.619,67.619,0,0,0-127.125,0,51.857,51.857,0,0,0-14.023-1.051A50.191,50.191,0,0,0,301.574,382.8H326.1a20.422,20.422,0,0,0,20.4-20.4v-9.074a11.908,11.908,0,1,0-8.926,1.652V362.4a11.4,11.4,0,0,1-11.4,11.4H297.6v-.152a41.2,41.2,0,0,1,1.2-82.125,42.967,42.967,0,0,1,15.148,1.8,4.552,4.552,0,0,0,5.7-3,58.632,58.632,0,0,1,112.578,0,4.463,4.463,0,0,0,5.7,3,39.908,39.908,0,0,1,15.148-1.8,41.166,41.166,0,0,1,3.676,81.75v.453H425.023a11.4,11.4,0,0,1-11.4-11.4v-7.5a11.9,11.9,0,1,0-9-1.348v8.848a20.422,20.422,0,0,0,20.4,20.4h24.527c27.523,0,50.551-21.9,50.926-49.426A50.135,50.135,0,0,0,450.375,282.375Zm-113.324,60.9a2.924,2.924,0,1,1,2.926,2.926A2.879,2.879,0,0,1,337.051,343.273Zm73.8,2.926a2.924,2.924,0,1,1,2.922-2.926A2.926,2.926,0,0,1,410.852,346.2Zm0,0" fill="url(#a)"/><path d="M441.523,367.727a4.514,4.514,0,0,0,4.5-4.5v-52.5a9.769,9.769,0,0,0-2.473-6.6,9.592,9.592,0,0,0-10.574-2.477L390,320.023a4.485,4.485,0,0,0-2.852,4.2,4.542,4.542,0,0,0,6.152,4.2l42.973-18.3a.556.556,0,0,1,.453.074.511.511,0,0,1,.223.449V363.3A4.566,4.566,0,0,0,441.523,367.727Zm0,0" fill="url(#b)"/><path d="M365.477,324.227a4.485,4.485,0,0,0-2.852-4.2l-43.648-18.3A9.589,9.589,0,0,0,308.4,304.2a9.769,9.769,0,0,0-2.473,6.6v53.25a4.5,4.5,0,0,0,9,0v-53.4a.511.511,0,0,1,.223-.449.462.462,0,0,1,.3-.074.281.281,0,0,1,.227.074l43.648,18.3A4.614,4.614,0,0,0,365.477,324.227Zm0,0" fill="url(#c)"/><path d="M441.523,388.051a4.514,4.514,0,0,0-4.5,4.5v7.426a.561.561,0,0,1-.375.523l-56.172,17.324V284.7a11.926,11.926,0,1,0-9,0V417.9L315.3,400.5a.561.561,0,0,1-.375-.523V393.3a4.5,4.5,0,0,0-9,0v6.676a9.427,9.427,0,0,0,6.676,9.074l63.3,19.574,63.3-19.574a9.473,9.473,0,0,0,6.75-9.074v-7.426A4.4,4.4,0,0,0,441.523,388.051ZM375.977,276.6a2.926,2.926,0,1,1,2.922-2.926A2.928,2.928,0,0,1,375.977,276.6Zm0,0" fill="url(#d)"/></g></svg>