<svg xmlns="http://www.w3.org/2000/svg" width="567" height="69.601" viewBox="0 0 567 69.601">
  <g id="Group_5" data-name="Group 5" transform="translate(-216.5 -590.2)">
    <g id="Group_3" data-name="Group 3">
      <g id="Group_1" data-name="Group 1">
        <path id="Path_1" data-name="Path 1" d="M228.3,590.2v68.1H216.5V590.2Z" fill="#fff"/>
        <path id="Path_2" data-name="Path 2" d="M248.8,638.5c.8,5.9,5.9,10.2,14.3,10.2,4.4,0,10.1-1.7,12.9-4.5l7.6,7.5c-5.1,5.3-13.3,7.8-20.6,7.8-16.6,0-26.4-10.2-26.4-25.6,0-14.6,9.9-25.1,25.5-25.1,16.1,0,26.1,9.9,24.3,29.7H248.8Zm26.1-9.8c-.8-6.2-5.7-9.4-12.5-9.4-6.4,0-11.7,3.1-13.4,9.4Z" fill="#fff"/>
        <path id="Path_3" data-name="Path 3" d="M333.5,610.3h11.4v48H333.7l-.6-7c-2.7,5.6-10.2,8.4-15.6,8.5-14.2.1-24.7-8.7-24.7-25.5,0-16.6,11-25.2,25-25.1,6.4,0,12.6,3,15.3,7.8Zm-28.8,23.9c0,9.2,6.3,14.6,14.2,14.6,18.7,0,18.7-29.1,0-29.1C311,619.7,304.7,625.1,304.7,634.2Z" fill="#fff"/>
        <path id="Path_4" data-name="Path 4" d="M366,610.3l.9,5.6c3.7-5.9,8.7-6.8,13.5-6.8,5,0,9.7,1.9,12.4,4.6L387.4,624a12.064,12.064,0,0,0-8.6-3.1c-6.2,0-12,3.3-12,12.2v25.3H355v-48h11Z" fill="#fff"/>
        <path id="Path_5" data-name="Path 5" d="M432.6,658.3V633.2c0-7.3-4-12.9-11.6-12.9-7.3,0-12.3,6.1-12.3,13.4v24.5H396.9V610.1h10.6l.8,6.5c4.9-4.8,9.7-7.2,15.8-7.2,11.3,0,20.4,8.5,20.4,23.6v25.2H432.6Z" fill="#fff"/>
        <path id="Path_6" data-name="Path 6" d="M467.2,595.7v14.5h16.4v4H467.2v29.3c0,6.5,1.4,11.1,8.9,11.1a18.868,18.868,0,0,0,7.4-1.9l1.7,3.9a20.27,20.27,0,0,1-9.1,2.4c-10.2,0-13.5-6-13.5-15.5V614.2H452.4v-4h10.2v-14Z" fill="#fff"/>
        <path id="Path_7" data-name="Path 7" d="M492.3,634.3c0-15.3,10.9-25,24.4-25s24.4,9.7,24.4,25-10.9,24.6-24.4,24.6C503.2,659,492.3,649.6,492.3,634.3Zm44.2,0c0-12.5-8.9-20.6-19.8-20.6s-19.8,8.1-19.8,20.6,8.9,20,19.8,20C527.7,654.3,536.5,646.8,536.5,634.3Z" fill="#fff"/>
        <path id="Path_8" data-name="Path 8" d="M591.9,652.1a24.614,24.614,0,0,1-18.5,7.6c-13.9,0-25.5-8.4-25.5-25.4s11.6-25.4,25.5-25.4a22.523,22.523,0,0,1,17.3,7.1l-7.5,7.9a14.621,14.621,0,0,0-9.6-3.8c-8,0-13.8,5.8-13.8,14.2,0,9.2,6.2,14,13.6,14a14.453,14.453,0,0,0,10.5-4Z" fill="#fff"/>
        <path id="Path_9" data-name="Path 9" d="M609,590.2v68.1H597.2V590.2Z" fill="#fff"/>
        <path id="Path_10" data-name="Path 10" d="M667.1,634.3c0,13.8-9.4,25-25,25s-24.9-11.2-24.9-25c0-13.7,9.5-25,24.8-25S667.1,620.6,667.1,634.3Zm-38,0c0,7.3,4.4,14.1,13.1,14.1s13.1-6.8,13.1-14.1c0-7.2-5.1-14.2-13.1-14.2C633.5,620.1,629.1,627.1,629.1,634.3Z" fill="#fff"/>
        <path id="Path_11" data-name="Path 11" d="M687.5,610.3v25.1c0,7.3,4,12.9,11.6,12.9,7.3,0,12.3-6.1,12.3-13.4V610.4h11.8v48.1H712.6l-.8-6.5c-5,4.9-9.5,7.2-16.3,7.2-11.5,0-19.9-8.7-19.9-23.6V610.4h11.9Z" fill="#fff"/>
        <path id="Path_12" data-name="Path 12" d="M783.5,590.2v68.1H772.4l-.8-6.6c-3.7,5.7-9.6,7.7-15.5,7.7-14.1,0-24.7-9.4-24.7-25.1,0-16.6,10.4-25.1,24.4-25.1,5.1,0,13,2.7,15.8,7.7V590.3h11.9Zm-40.2,44c0,8.4,6,14.1,13.6,14.1a14.051,14.051,0,0,0,0-28.1C749.3,620.2,743.3,625.6,743.3,634.2Z" fill="#fff"/>
      </g>
    </g>
  </g>
</svg>
